<?xml version="1.0" encoding="utf-8"?>
<!-- Generator: Adobe Illustrator 27.0.0, SVG Export Plug-In . SVG Version: 6.00 Build 0)  -->
<svg version="1.1" id="Layer_1" xmlns="http://www.w3.org/2000/svg" xmlns:xlink="http://www.w3.org/1999/xlink" x="0px" y="0px"
	 viewBox="0 0 288 76.8" style="enable-background:new 0 0 288 76.8;" xml:space="preserve">
<style type="text/css">
	.st0{fill:none;}
	.st1{clip-path:url(#SVGID_00000098918787984010394480000000507959404269897916_);}
	
		.st2{clip-path:url(#SVGID_00000010272625013163666570000000413001483159415198_);fill:url(#SVGID_00000164501083093615995630000008664759149465180090_);}
	.st3{clip-path:url(#SVGID_00000004510781348348051110000013574171952833388688_);}
	
		.st4{clip-path:url(#SVGID_00000007396862869457378560000008895754375469263280_);fill:url(#SVGID_00000116201688822789614660000004520991628947855493_);}
	
		.st5{clip-path:url(#SVGID_00000146498807977552746590000017059558514822507403_);fill:url(#SVGID_00000173136849824397226890000012991661906858537115_);}
	.st6{clip-path:url(#SVGID_00000098918787984010394480000000507959404269897916_);fill:#00689D;}
	.st7{clip-path:url(#SVGID_00000098918787984010394480000000507959404269897916_);fill:#716662;}
	.st8{filter:url(#Adobe_OpacityMaskFilter);}
	.st9{clip-path:url(#SVGID_00000057827818420840100410000017345630701738951333_);fill:#FFFFFF;}
	.st10{clip-path:url(#SVGID_00000057827818420840100410000017345630701738951333_);}
	
		.st11{clip-path:url(#SVGID_00000098918787984010394480000000507959404269897916_);mask:url(#SVGID_00000006700557049624720190000013632961772429367188_);fill-rule:evenodd;clip-rule:evenodd;fill:#00689D;}
	.st12{filter:url(#Adobe_OpacityMaskFilter_00000020361780758794264360000011207767125254067125_);}
	.st13{clip-path:url(#SVGID_00000024697926428666765590000017894347513441307809_);fill:#FFFFFF;}
	.st14{clip-path:url(#SVGID_00000024697926428666765590000017894347513441307809_);}
	
		.st15{clip-path:url(#SVGID_00000098918787984010394480000000507959404269897916_);mask:url(#SVGID_00000034059476799711693260000001072465329852958357_);fill-rule:evenodd;clip-rule:evenodd;fill:#00689D;}
	.st16{filter:url(#Adobe_OpacityMaskFilter_00000134936606036003957470000015240987763885994419_);}
	.st17{clip-path:url(#SVGID_00000104675479689270031780000015731704824042152113_);fill:#FFFFFF;}
	.st18{clip-path:url(#SVGID_00000104675479689270031780000015731704824042152113_);}
	
		.st19{clip-path:url(#SVGID_00000098918787984010394480000000507959404269897916_);mask:url(#SVGID_00000008840276879995419180000013443503985843504063_);fill-rule:evenodd;clip-rule:evenodd;fill:#00689D;}
	.st20{filter:url(#Adobe_OpacityMaskFilter_00000048478460164633872030000006558614828141149314_);}
	.st21{clip-path:url(#SVGID_00000076575299665335079520000013540371408105589902_);fill:#FFFFFF;}
	.st22{clip-path:url(#SVGID_00000076575299665335079520000013540371408105589902_);}
	
		.st23{clip-path:url(#SVGID_00000098918787984010394480000000507959404269897916_);mask:url(#SVGID_00000168824264186926009390000000570431167269256883_);fill-rule:evenodd;clip-rule:evenodd;fill:#00689D;}
	
		.st24{clip-path:url(#SVGID_00000098918787984010394480000000507959404269897916_);fill:none;stroke:#EF7C00;stroke-width:0.5346;stroke-linecap:round;stroke-miterlimit:2.6131;}
	
		.st25{clip-path:url(#SVGID_00000098918787984010394480000000507959404269897916_);fill:none;stroke:#006B29;stroke-width:0.7562;stroke-linecap:round;stroke-miterlimit:2.6131;}
	
		.st26{clip-path:url(#SVGID_00000098918787984010394480000000507959404269897916_);fill-rule:evenodd;clip-rule:evenodd;fill:#00689D;}
	
		.st27{clip-path:url(#SVGID_00000098918787984010394480000000507959404269897916_);fill-rule:evenodd;clip-rule:evenodd;fill:#005C71;}
	
		.st28{clip-path:url(#SVGID_00000098918787984010394480000000507959404269897916_);fill-rule:evenodd;clip-rule:evenodd;fill:#008788;}
	.st29{clip-path:url(#SVGID_00000098918787984010394480000000507959404269897916_);fill:#FFFFFF;}
	
		.st30{clip-path:url(#SVGID_00000098918787984010394480000000507959404269897916_);fill-rule:evenodd;clip-rule:evenodd;fill:#E3000F;}
	.st31{clip-path:url(#SVGID_00000098918787984010394480000000507959404269897916_);fill:#F4BC00;}
	.st32{clip-path:url(#SVGID_00000098918787984010394480000000507959404269897916_);fill-rule:evenodd;clip-rule:evenodd;}
	.st33{filter:url(#Adobe_OpacityMaskFilter_00000091706368488605359230000002346506026772506781_);}
	
		.st34{clip-path:url(#SVGID_00000098918787984010394480000000507959404269897916_);fill-rule:evenodd;clip-rule:evenodd;fill:url(#SVGID_00000017501792095935615800000016087260481465174922_);}
	
		.st35{opacity:9.800000e-02;clip-path:url(#SVGID_00000098918787984010394480000000507959404269897916_);mask:url(#SVGID_00000150784182937242585100000013769081537738242997_);fill-rule:evenodd;clip-rule:evenodd;}
	
		.st36{clip-path:url(#SVGID_00000098918787984010394480000000507959404269897916_);fill-rule:evenodd;clip-rule:evenodd;fill:#E5E4E8;}
	
		.st37{clip-path:url(#SVGID_00000018939052012339473020000017340497199849532587_);fill:url(#SVGID_00000174596301635479975040000015771203061756956077_);}
	
		.st38{clip-path:url(#SVGID_00000101813943268251604930000007717829730129501101_);fill:url(#SVGID_00000130622717141725296770000017962218020106645378_);}
	
		.st39{clip-path:url(#SVGID_00000099653658648308649790000015834080837517484417_);fill:url(#SVGID_00000026148155828659887000000001576393017004073118_);}
	
		.st40{clip-path:url(#SVGID_00000098918787984010394480000000507959404269897916_);fill-rule:evenodd;clip-rule:evenodd;fill:#FFFFFF;}
</style>
<pattern  y="76.8" width="37.7" height="78.6" patternUnits="userSpaceOnUse" id="Unnamed_Pattern" viewBox="0 -78.6 37.7 78.6" style="overflow:visible;">
	<g>
		<rect y="-78.6" class="st0" width="37.7" height="78.6"/>
		<g>
			<defs>
				<rect id="SVGID_1_" y="-78.6" width="37.7" height="78.6"/>
			</defs>
			<clipPath id="SVGID_00000133530407755098959090000017512346801755185062_">
				<use xlink:href="#SVGID_1_"  style="overflow:visible;"/>
			</clipPath>
			<g transform="matrix(1 0 0 1 0 0)" style="clip-path:url(#SVGID_00000133530407755098959090000017512346801755185062_);">
				
					<image style="overflow:visible;" width="157" height="328" xlink:href="7A95C7A8.jpg"  transform="matrix(0.2401 0 0 -0.2397 0 0)">
				</image>
			</g>
		</g>
	</g>
</pattern>
<g>
	<defs>
		<rect id="SVGID_00000050637617034072706280000012886044168892625563_" width="288" height="76.8"/>
	</defs>
	<clipPath id="SVGID_00000007393055700277833500000018057077414806740671_">
		<use xlink:href="#SVGID_00000050637617034072706280000012886044168892625563_"  style="overflow:visible;"/>
	</clipPath>
	<g style="clip-path:url(#SVGID_00000007393055700277833500000018057077414806740671_);">
		<defs>
			<rect id="SVGID_00000113327726287651923250000001855877234396921788_" width="288" height="76.8"/>
		</defs>
		<clipPath id="SVGID_00000183236316282329887610000001394178559109327775_">
			<use xlink:href="#SVGID_00000113327726287651923250000001855877234396921788_"  style="overflow:visible;"/>
		</clipPath>
		
			<linearGradient id="SVGID_00000158029641522275613010000005966123517915359136_" gradientUnits="userSpaceOnUse" x1="144" y1="0" x2="144" y2="76.8002">
			<stop  offset="0" style="stop-color:#8ACED5"/>
			<stop  offset="1.000000e-02" style="stop-color:#AADAE3"/>
			<stop  offset="0.99" style="stop-color:#FFFFFF"/>
			<stop  offset="1" style="stop-color:#FFFFFF"/>
		</linearGradient>
		
			<rect style="clip-path:url(#SVGID_00000183236316282329887610000001394178559109327775_);fill:url(#SVGID_00000158029641522275613010000005966123517915359136_);" width="288" height="76.8"/>
	</g>
	<g style="clip-path:url(#SVGID_00000007393055700277833500000018057077414806740671_);">
		<defs>
			<polygon id="SVGID_00000028315516818965619460000005411702171957775031_" points="0,0 80.3,11.8 80.9,49.7 67.4,76.8 42.2,76.8 
				3.1,76.7 			"/>
		</defs>
		<clipPath id="SVGID_00000017507146381673922530000013934841266522092940_">
			<use xlink:href="#SVGID_00000028315516818965619460000005411702171957775031_"  style="overflow:visible;"/>
		</clipPath>
		<g style="clip-path:url(#SVGID_00000017507146381673922530000013934841266522092940_);">
			<defs>
				
					<rect id="SVGID_00000155121054861250071370000005341454018340544162_" x="2.1" y="-1.5" transform="matrix(0.1733 -0.9849 0.9849 0.1733 -10.017 69.762)" width="68.9" height="84.8"/>
			</defs>
			<clipPath id="SVGID_00000053542100610844744680000011386621722912279723_">
				<use xlink:href="#SVGID_00000155121054861250071370000005341454018340544162_"  style="overflow:visible;"/>
			</clipPath>
			
				<g transform="matrix(1 0 0 1 0 -2.980232e-08)" style="clip-path:url(#SVGID_00000053542100610844744680000011386621722912279723_);">
				
					<image style="overflow:visible;" width="235" height="191" xlink:href="7A95C7A8.png"  transform="matrix(0.3553 6.251229e-02 -6.247519e-02 0.3551 0.7688 -0.4051)">
				</image>
			</g>
		</g>
	</g>
	<g style="clip-path:url(#SVGID_00000007393055700277833500000018057077414806740671_);">
		<defs>
			<polygon id="SVGID_00000100382679499550552160000003090718809248962463_" points="78.8,48.3 79.7,47.2 82.3,50.3 81.3,51.1 			
				"/>
		</defs>
		<clipPath id="SVGID_00000021085975956649737690000012332645563652113794_">
			<use xlink:href="#SVGID_00000100382679499550552160000003090718809248962463_"  style="overflow:visible;"/>
		</clipPath>
		
			<linearGradient id="SVGID_00000167363304387206775340000002944368156172304009_" gradientUnits="userSpaceOnUse" x1="82.37" y1="49.1878" x2="78.76" y2="49.1078">
			<stop  offset="0" style="stop-color:#003644"/>
			<stop  offset="1" style="stop-color:#FFFFFF"/>
		</linearGradient>
		
			<rect x="78.8" y="47.2" style="clip-path:url(#SVGID_00000021085975956649737690000012332645563652113794_);fill:url(#SVGID_00000167363304387206775340000002944368156172304009_);" width="3.5" height="3.9"/>
	</g>
	<g style="clip-path:url(#SVGID_00000007393055700277833500000018057077414806740671_);">
		<defs>
			<polygon id="SVGID_00000032622817811436705150000002478219430558983333_" points="81.5,44.9 82.9,44.4 88.1,50.6 87.4,51.8 			
				"/>
		</defs>
		<clipPath id="SVGID_00000183940505449841792480000012234030250150881722_">
			<use xlink:href="#SVGID_00000032622817811436705150000002478219430558983333_"  style="overflow:visible;"/>
		</clipPath>
		
			<linearGradient id="SVGID_00000057843419668491349690000007952832648663495336_" gradientUnits="userSpaceOnUse" x1="88.83" y1="48.1341" x2="81.87" y2="48.1341">
			<stop  offset="0" style="stop-color:#878786"/>
			<stop  offset="1" style="stop-color:#E0EDFA"/>
		</linearGradient>
		
			<rect x="81.5" y="44.4" style="clip-path:url(#SVGID_00000183940505449841792480000012234030250150881722_);fill:url(#SVGID_00000057843419668491349690000007952832648663495336_);" width="6.6" height="7.4"/>
	</g>
	<path style="clip-path:url(#SVGID_00000007393055700277833500000018057077414806740671_);fill:#00689D;" d="M261.7,27l5.8-13.3h2.9
		l5.8,13.3h-3.6l-1-2.7H267l1-2.7h2.5l-1.6-4.2l-3.6,9.5H261.7z M249.4,27H261v-2.7h-8.7V13.7h-2.9V27z M234.3,27l5.8-13.3h2.9
		l5.8,13.3h-3.6l-1-2.7h-4.5l1-2.7h2.5l-1.6-4.2l-3.6,9.5H234.3z M227.1,23h-11.5v10.6h-5.8V7.1h18.8c1.2,0,2.2,0.4,3.1,1.2
		c0.8,0.8,1.3,1.7,1.3,2.8v6.6c0,1-0.4,1.9-1.1,2.7c0.7,0.7,1.1,1.6,1.1,2.7v6.7c0,1.1-0.4,2.1-1.3,2.8c-0.8,0.8-1.9,1.2-3.1,1.2
		h-8.7l-4.3-5.3h11.5V23z M215.5,17.7h11.5v-5.3h-11.5V17.7z M207.6,25c0,0.5-0.2,1-0.6,1.4c-0.4,0.4-0.9,0.6-1.5,0.6h-7.2
		c-0.6,0-1.1-0.2-1.5-0.6c-0.4-0.4-0.6-0.9-0.6-1.4V13.7h2.9v10.6h5.8V13.7h2.9V25z M186.7,21.7h5V27h2.9V13.7h-2.9V19h-5V21.7z
		 M183.1,27V13.7h2.9V27H183.1z M179.5,13.7c0.6,0,1.1,0.2,1.5,0.6c0.4,0.4,0.6,0.9,0.6,1.4v0.7h-5.8V27H173V16.4h-5.8v-0.7
		c0-0.6,0.2-1,0.6-1.4c0.4-0.4,0.9-0.6,1.5-0.6H179.5z M165.8,25c0,0.5-0.2,1-0.6,1.4c-0.4,0.4-0.9,0.6-1.5,0.6h-7.2
		c-0.6,0-1.1-0.2-1.5-0.6c-0.4-0.4-0.6-0.9-0.6-1.4V13.7h2.9v10.6h5.8V13.7h2.9V25z M129,17.7l5.8,14.6h5.8l5.8-14.6v15.9l5.8,0V7.1
		h-7.2l-7.2,18l-7.2-18h-7.2v26.6h5.8V17.7z"/>
	<path style="clip-path:url(#SVGID_00000007393055700277833500000018057077414806740671_);fill:#716662;" d="M276.5,42
		c0.4-0.1,0.7-0.2,1.1-0.2c0.4-0.1,0.6-0.1,0.7-0.1c0.1,0,0.1,0,0.1,0.1c0,0.1,0,0.2-0.1,0.2c-0.1,0.2-0.1,0.5-0.1,0.7
		c0,0.3,0.2,0.6,0.5,1.1c0.3,0.5,0.5,0.9,0.5,1.3c0,0.8-0.4,1.6-1.2,2.3c-0.8,0.7-1.6,1.1-2.4,1.1c-0.4,0-0.7-0.1-1-0.3
		c-0.3-0.2-0.5-0.4-0.5-0.6c0-0.1,0.1-0.4,0.4-0.7c0.3-0.4,0.5-0.5,0.6-0.5c0.2,0,0.3,0.2,0.5,0.6c0.1,0.4,0.4,0.6,0.7,0.6
		c0.3,0,0.6-0.1,0.9-0.4c0.3-0.3,0.4-0.6,0.4-1c0-0.3-0.2-0.8-0.6-1.3c-0.4-0.6-0.6-1-0.7-1.4c-0.6,1-1.4,2-2.4,3h-0.2v-0.7
		C275.1,44.5,276,43.2,276.5,42 M274,46.6c-0.7,0.7-1.3,1.1-1.9,1.5c-0.6,0.3-1.2,0.5-1.8,0.5c-0.7,0-1.3-0.2-1.7-0.7
		c-0.5-0.4-0.7-1-0.7-1.7c0-1.1,0.4-2.1,1.3-3.1c0.8-0.9,1.7-1.4,2.7-1.4c0.5,0,0.9,0.1,1.2,0.4c0.3,0.3,0.5,0.6,0.5,1
		c0,0.1,0,0.3-0.1,0.3c-0.1,0.1-0.2,0.1-0.3,0.2l-0.9,0.4c-0.1,0.1-0.2,0.1-0.3,0.1c-0.1,0-0.1-0.1-0.1-0.2c0,0,0-0.2,0-0.4
		c0-0.2,0-0.4,0-0.4c0-0.2,0-0.4-0.1-0.6c-0.1-0.1-0.2-0.2-0.4-0.2c-0.4,0-0.8,0.3-1.1,0.8c-0.3,0.6-0.5,1.2-0.5,1.9
		c0,0.6,0.2,1.1,0.5,1.5c0.3,0.4,0.7,0.6,1.2,0.6c0.4,0,0.8-0.1,1.2-0.4c0.4-0.2,0.8-0.6,1.3-1.1V46.6z M268,46.6
		c-1.3,1.3-2.2,1.9-2.8,1.9c-0.3,0-0.6-0.2-0.9-0.5c-0.2-0.3-0.4-0.8-0.4-1.3c0-1.1,0.4-2.7,1.2-4.6l2-0.4h0.1l-0.8,2.5
		c-0.3,1-0.5,1.7-0.5,2.2c0,0.2,0,0.3,0.1,0.4c0.1,0.1,0.2,0.2,0.3,0.2c0.2,0,0.4-0.1,0.6-0.2c0.2-0.1,0.5-0.5,1-1V46.6z
		 M267.8,38.6c0,1.3-0.5,1.9-1.4,1.9c-0.5,0-0.9-0.1-1.2-0.4c0.3-0.5,0.6-1,0.7-1.6c0.4,0.3,0.8,0.4,1,0.4
		C267.2,38.9,267.5,38.8,267.8,38.6z M258.4,43.4c1.9-2.2,2.9-3.8,2.9-4.8c0-0.3-0.1-0.5-0.3-0.5c-0.3,0-0.7,0.5-1.3,1.5
		C259.2,40.7,258.8,41.9,258.4,43.4z M264,46.6c-1.3,1.3-2.3,1.9-3.1,1.9c-0.4,0-0.7-0.1-0.9-0.4c-0.2-0.2-0.4-0.6-0.4-0.9
		c0-0.6,0.2-1.5,0.7-2.7c0.3-0.6,0.4-1,0.4-1.2c0-0.2-0.1-0.3-0.3-0.3c-0.2,0-0.5,0.1-0.9,0.4c-0.4,0.3-0.8,0.7-1.3,1.2
		c-0.2,1-0.3,2.1-0.3,3.5l-1.8,0.4c-0.1-0.6-0.1-1.1-0.1-1.8c0-1.6,0.2-3,0.7-4.4c0.4-1.3,1.1-2.8,2.1-4.3c0.7-0.3,1.3-0.5,1.8-0.7
		c0.5-0.2,0.8-0.3,0.9-0.3c0.1,0,0.3,0.1,0.4,0.3c0.1,0.2,0.1,0.5,0.1,0.8c0,0.6-0.2,1.2-0.5,1.8c-0.3,0.7-0.9,1.5-1.6,2.4
		c0.7-0.4,1.2-0.7,1.4-0.8c0.2-0.1,0.5-0.2,0.7-0.2c0.3,0,0.5,0.1,0.7,0.3c0.2,0.2,0.3,0.4,0.3,0.8c0,0.5-0.2,1.2-0.6,2.2
		c-0.4,1-0.6,1.6-0.6,1.9c0,0.1,0,0.2,0.1,0.3c0.1,0.1,0.2,0.1,0.3,0.1c0.3,0,1-0.5,1.9-1.5V46.6z M250.5,47.2
		c0.3,0.5,0.6,0.7,0.9,0.7c0.5,0,1-0.4,1.4-1.2c0.4-0.8,0.6-1.6,0.6-2.4c0-0.4-0.1-0.7-0.3-1c-0.2-0.2-0.4-0.4-0.7-0.4
		c-0.2,0-0.4,0.1-0.7,0.3c-0.2,0.2-0.4,0.4-0.5,0.6c-0.1,0.2-0.3,0.7-0.4,1.3L250.5,47.2z M251.4,43c0.4-0.5,0.8-0.8,1.1-1
		c0.3-0.2,0.7-0.3,1.1-0.3c0.5,0,1,0.2,1.3,0.6c0.3,0.4,0.5,0.9,0.5,1.6c0,1.2-0.4,2.2-1.2,3.2c-0.8,1-1.7,1.5-2.7,1.5
		c-0.3,0-0.5,0-0.6-0.1c-0.2-0.1-0.4-0.2-0.6-0.4c-0.4,1.7-0.6,3-0.7,4l-2,0.4c0.4-2.5,0.9-4.9,1.5-7.5c-0.7,0.9-1.2,1.5-1.4,1.7
		h-0.2v-0.7c1-1.1,1.9-2.4,2.5-3.9l1.8-0.3L251.4,43z M241.7,47c0.5,0,1-0.4,1.5-1.3c0.5-0.9,0.7-1.7,0.7-2.5c0-0.3-0.1-0.5-0.2-0.7
		c-0.1-0.2-0.3-0.2-0.5-0.2c-0.5,0-1,0.4-1.5,1.3c-0.5,0.9-0.7,1.7-0.7,2.5c0,0.3,0.1,0.5,0.2,0.7C241.3,47,241.5,47,241.7,47z
		 M247.6,46.6c-0.9,0.8-1.5,1.3-1.8,1.6c-0.4,0.2-0.7,0.4-1.1,0.4c-0.8,0-1.2-0.7-1.2-2.2c-0.5,0.7-1,1.3-1.5,1.7
		c-0.5,0.4-0.9,0.5-1.4,0.5c-0.5,0-0.9-0.2-1.2-0.6c-0.3-0.4-0.5-1-0.5-1.6c0-0.8,0.2-1.5,0.7-2.2c0.4-0.7,1-1.3,1.7-1.7
		c0.7-0.4,1.3-0.7,1.8-0.7c0.7,0,1.1,0.3,1.4,0.9l1.6-0.9h0.5l-0.7,2.3c-0.4,1.2-0.5,2-0.5,2.4c0,0.5,0.2,0.7,0.5,0.7
		c0.2,0,0.4-0.1,0.7-0.3c0.3-0.2,0.6-0.5,1.1-1V46.6z M239,46.6c-1.3,1.3-2.4,1.9-3.1,1.9c-0.3,0-0.6-0.1-0.8-0.4
		c-0.2-0.3-0.3-0.6-0.3-1c0-0.7,0.4-1.7,1.2-3c-0.4,0.2-0.8,0.3-1.3,0.4c-0.3,0.6-0.9,1.3-1.6,2h-0.2v-0.7c0.4-0.4,0.8-0.9,1.1-1.4
		c-0.5-0.2-0.7-0.5-0.7-0.9c0-0.4,0.1-0.8,0.4-1.3c0.3-0.5,0.7-0.7,1.2-0.7c0.4,0,0.6,0.2,0.6,0.6c0,0.3-0.1,0.8-0.4,1.4
		c0.9-0.1,1.7-0.8,2.3-2l0.7,0l-0.7,2c-0.3,0.8-0.5,1.4-0.6,1.7c-0.1,0.3-0.1,0.6-0.1,0.8c0,0.2,0.1,0.4,0.2,0.5
		c0.1,0.1,0.2,0.2,0.4,0.2c0.2,0,0.4-0.1,0.6-0.2c0.2-0.1,0.6-0.5,1.2-1.1V46.6z M228.3,49.2c-1.4,0.7-2.1,1.4-2.1,2
		c0,0.4,0.2,0.5,0.5,0.5C227.4,51.8,227.9,50.9,228.3,49.2z M232.9,46.6c-0.4,0.4-1.1,0.9-2.1,1.4c-0.2,1.4-0.7,2.5-1.4,3.2
		c-0.7,0.8-1.6,1.1-2.5,1.1c-0.4,0-0.8-0.1-1-0.3c-0.3-0.2-0.4-0.5-0.4-0.8c0-1,1-1.9,2.9-2.8c0.2-0.7,0.4-1.3,0.6-1.9
		c-0.3,0.5-0.8,0.9-1.5,1.3c-0.6,0.4-1.2,0.6-1.8,0.6c-0.9,0-1.7-0.4-2.3-1.1c-0.6-0.8-0.9-1.7-0.9-2.9c0-1.2,0.3-2.4,1-3.5
		c0.7-1.1,1.6-2,2.7-2.7c1.1-0.7,2.2-1,3.2-1c0.9,0,1.7,0.3,2.3,0.8c0.6,0.5,0.9,1.2,0.9,2c0,0.9-0.3,1.7-1,2.3
		c-0.6,0.7-1.4,1-2.2,1c-0.5,0-0.9-0.1-1.2-0.4c-0.3-0.2-0.5-0.5-0.5-0.9c0-0.2,0.1-0.4,0.2-0.6c0.1-0.2,0.3-0.2,0.4-0.2
		c0.2,0,0.2,0.1,0.2,0.3c0,0.2,0.1,0.3,0.2,0.4c0.1,0.1,0.3,0.1,0.4,0.1c0.4,0,0.8-0.3,1.2-0.9c0.4-0.6,0.6-1.2,0.6-1.8
		c0-0.5-0.2-0.8-0.5-1.1c-0.3-0.3-0.7-0.4-1.2-0.4c-0.7,0-1.4,0.3-2.1,0.9c-0.7,0.6-1.2,1.5-1.7,2.5c-0.4,1-0.6,2-0.6,2.9
		c0,0.9,0.2,1.5,0.6,2c0.4,0.5,0.9,0.7,1.5,0.7c1.1,0,2.1-0.7,3-2.2l1.5-0.2c0.2,0,0.3,0,0.3,0.1c0,0.1-0.1,0.3-0.2,0.7
		c-0.1,0.4-0.3,1.1-0.6,2c0.8-0.5,1.5-1,1.9-1.6V46.6z M218.3,46.6c-0.7,0.7-1.3,1.1-1.8,1.5c-0.5,0.3-1,0.5-1.4,0.5
		c-0.5,0-0.8-0.2-1.1-0.6c-0.3-0.4-0.4-0.9-0.4-1.5c0-0.5,0.1-1.3,0.4-2.2l0.4-1.2l-0.6,0l0.3-1.2l0.8,0l0.8-2.5l2.2-0.4l-0.8,2.7
		l1.1-0.1l-0.3,1.2l-1.2,0.1l-0.5,1.8c-0.2,0.6-0.3,1.1-0.3,1.5c0,0.2,0.1,0.4,0.2,0.6c0.1,0.2,0.3,0.2,0.5,0.2
		c0.3,0,0.5-0.1,0.8-0.3c0.3-0.2,0.7-0.5,1.2-1.1V46.6z M213.7,46.6c-1.2,1.3-2.3,1.9-3.2,1.9c-0.4,0-0.6-0.1-0.9-0.4
		c-0.2-0.2-0.3-0.6-0.3-1c0-0.6,0.2-1.4,0.7-2.6c0.3-0.6,0.4-1,0.4-1.2c0-0.2-0.1-0.3-0.2-0.3c-0.1,0-0.2,0-0.3,0.1
		c-0.1,0.1-0.2,0.2-0.4,0.3c-0.1,0.1-0.3,0.3-0.5,0.4c-0.1,0.1-0.3,0.3-0.5,0.5l-0.5,0.5c-0.2,0.2-0.3,0.5-0.4,0.7
		c-0.1,0.4-0.1,0.9-0.2,1.2c0,0.3,0,0.7,0,1.1l-1.8,0.4c-0.1-0.7-0.1-1.2-0.1-1.6c0-0.8,0.1-1.6,0.3-2.4c0.2-0.8,0.5-1.6,1-2.5
		l2-0.4c-0.4,1.1-0.7,1.9-0.8,2.6c0.9-1,1.6-1.6,2.1-2c0.5-0.4,1-0.6,1.4-0.6c0.3,0,0.5,0.1,0.7,0.3c0.2,0.2,0.3,0.5,0.3,0.8
		c0,0.5-0.2,1.3-0.7,2.5c-0.3,0.8-0.5,1.3-0.5,1.5c0,0.3,0.1,0.5,0.4,0.5c0.4,0,1-0.5,1.9-1.5V46.6z M205.8,46.6
		c-1.3,1.3-2.2,1.9-2.8,1.9c-0.3,0-0.6-0.2-0.9-0.5c-0.2-0.3-0.4-0.8-0.4-1.3c0-1.1,0.4-2.7,1.2-4.6l2-0.4h0.1l-0.8,2.5
		c-0.3,1-0.5,1.7-0.5,2.2c0,0.2,0,0.3,0.1,0.4c0.1,0.1,0.2,0.2,0.3,0.2c0.2,0,0.4-0.1,0.6-0.2c0.2-0.1,0.5-0.5,1-1V46.6z
		 M205.6,38.6c0,1.3-0.5,1.9-1.4,1.9c-0.5,0-0.9-0.1-1.2-0.4c0.3-0.5,0.6-1,0.7-1.6c0.4,0.3,0.8,0.4,1,0.4
		C205.1,38.9,205.4,38.8,205.6,38.6z M201.8,46.6c-1.3,1.3-2.4,1.9-3.1,1.9c-0.3,0-0.6-0.1-0.8-0.4c-0.2-0.3-0.3-0.6-0.3-1
		c0-0.7,0.4-1.7,1.2-3c-0.4,0.2-0.8,0.3-1.3,0.4c-0.3,0.6-0.9,1.3-1.6,2h-0.2v-0.7c0.4-0.4,0.8-0.9,1.1-1.4
		c-0.5-0.2-0.7-0.5-0.7-0.9c0-0.4,0.1-0.8,0.4-1.3c0.3-0.5,0.7-0.7,1.2-0.7c0.4,0,0.6,0.2,0.6,0.6c0,0.3-0.1,0.8-0.4,1.4
		c0.9-0.1,1.7-0.8,2.3-2l0.7,0l-0.7,2c-0.3,0.8-0.5,1.4-0.6,1.7c-0.1,0.3-0.1,0.6-0.1,0.8c0,0.2,0.1,0.4,0.2,0.5
		c0.1,0.1,0.2,0.2,0.4,0.2c0.2,0,0.4-0.1,0.6-0.2c0.2-0.1,0.6-0.5,1.2-1.1V46.6z M193.5,39.2c-0.4,0.3-0.6,0.7-0.8,1.1
		c-0.2,0.4-0.3,1.3-0.5,2.6c-0.2,1.3-0.4,2.3-0.8,3.1c-0.4,0.7-1,1.4-1.8,1.9c-0.8,0.5-1.7,0.7-2.6,0.7c-0.7,0-1.2-0.2-1.7-0.5
		c-0.4-0.3-0.6-0.8-0.6-1.3c0-0.2,0.1-0.4,0.2-0.5c0.1-0.1,0.4-0.3,0.8-0.5c0.4-0.2,0.6-0.3,0.8-0.3c0.1,0,0.2,0,0.2,0.1
		c0.1,0.1,0.1,0.1,0.1,0.2c0,0.1,0,0.2-0.1,0.6c-0.1,0.3-0.1,0.5-0.1,0.6c0,0.6,0.3,0.9,0.8,0.9c0.6,0,1.1-0.3,1.5-1
		c0.4-0.7,0.7-1.8,0.9-3.3c0.2-1.5,0.5-2.5,0.8-3.1c0.4-0.6,0.8-1,1.3-1.3c0.5-0.3,0.8-0.4,1-0.4C193.1,38.8,193.3,38.9,193.5,39.2z
		 M191.9,37.1c1.1,0,2,0.3,2.7,0.8c0.7,0.5,1,1.3,1,2.2c0,0.8-0.2,1.5-0.7,2c-0.5,0.5-0.9,0.7-1.3,0.7c-0.1,0-0.3-0.1-0.5-0.2
		c-0.2-0.1-0.3-0.2-0.3-0.3c0-0.1,0.1-0.2,0.4-0.6c0.6-0.7,0.9-1.4,0.9-2.1c0-0.6-0.2-1.1-0.6-1.4c-0.4-0.3-1-0.5-1.7-0.5
		c-1.1,0-2,0.3-2.9,0.9c-0.9,0.6-1.3,1.3-1.3,2.1c0,0.5,0.2,0.8,0.7,1c0.2,0.1,0.3,0.2,0.3,0.3c0,0.1-0.2,0.3-0.6,0.5
		c-0.4,0.2-0.7,0.3-0.8,0.3c-0.2,0-0.5-0.2-0.7-0.5c-0.2-0.3-0.3-0.7-0.3-1c0-1,0.5-1.9,1.6-2.8C189,37.6,190.3,37.1,191.9,37.1z"/>
	<defs>
		<filter id="Adobe_OpacityMaskFilter" filterUnits="userSpaceOnUse" x="153.7" y="31.2" width="54.3" height="1.1">
			<feColorMatrix  type="matrix" values="1 0 0 0 0  0 1 0 0 0  0 0 1 0 0  0 0 0 1 0"/>
		</filter>
	</defs>
	
		<mask maskUnits="userSpaceOnUse" x="153.7" y="31.2" width="54.3" height="1.1" id="SVGID_00000027568628658563908130000012236320675264314510_">
		<g class="st8">
			<g>
				<defs>
					<rect id="SVGID_00000109028492643617692430000014254633347862064566_" x="153.7" y="31.2" width="54.3" height="1.1"/>
				</defs>
				
					<clipPath id="SVGID_00000081618016466312185340000016903921127761837999_" style="clip-path:url(#SVGID_00000007393055700277833500000018057077414806740671_);">
					<use xlink:href="#SVGID_00000109028492643617692430000014254633347862064566_"  style="overflow:visible;"/>
				</clipPath>
				
					<rect x="-53040.2" y="91.8" transform="matrix(0.9999 -1.005610e-02 1.005610e-02 0.9999 -4.35 -265.8598)" style="clip-path:url(#SVGID_00000081618016466312185340000016903921127761837999_);fill:#FFFFFF;" width="53202" height="415.6"/>
				
					<rect x="213.6" y="-443.7" transform="matrix(0.9999 -1.005609e-02 1.005609e-02 0.9999 3.7282 269.6381)" style="clip-path:url(#SVGID_00000081618016466312185340000016903921127761837999_);" width="53202" height="415.6"/>
				<g>
					<defs>
						
							<rect id="SVGID_00000042737524021121301180000006669839241825725585_" x="153.7" y="-175.9" transform="matrix(0.9999 -1.005602e-02 1.005602e-02 0.9999 -0.3109 1.8891)" width="68.1" height="415.6"/>
					</defs>
					
						<clipPath id="SVGID_00000160901094835824826380000011167069890254656943_" style="clip-path:url(#SVGID_00000081618016466312185340000016903921127761837999_);">
						<use xlink:href="#SVGID_00000042737524021121301180000006669839241825725585_"  style="overflow:visible;"/>
					</clipPath>
					
						<g transform="matrix(1 0 9.313226e-10 1 0 0)" style="clip-path:url(#SVGID_00000160901094835824826380000011167069890254656943_);">
						
							<image style="overflow:visible;" width="256" height="1" xlink:href="7A95C7AF.jpg"  transform="matrix(0.266 -2.675078e-03 4.1792 415.5663 151.5631 -175.5799)">
						</image>
					</g>
				</g>
			</g>
		</g>
	</mask>
	
		<rect x="153.7" y="31.2" style="clip-path:url(#SVGID_00000007393055700277833500000018057077414806740671_);mask:url(#SVGID_00000027568628658563908130000012236320675264314510_);fill-rule:evenodd;clip-rule:evenodd;fill:#00689D;" width="54.3" height="1.1"/>
	<defs>
		
			<filter id="Adobe_OpacityMaskFilter_00000085950907837380353900000007344959201191592600_" filterUnits="userSpaceOnUse" x="153.7" y="32.8" width="54.3" height="1.1">
			<feColorMatrix  type="matrix" values="1 0 0 0 0  0 1 0 0 0  0 0 1 0 0  0 0 0 1 0"/>
		</filter>
	</defs>
	
		<mask maskUnits="userSpaceOnUse" x="153.7" y="32.8" width="54.3" height="1.1" id="SVGID_00000125576935096595393780000002181925454659588999_">
		<g style="filter:url(#Adobe_OpacityMaskFilter_00000085950907837380353900000007344959201191592600_);">
			<g>
				<defs>
					<rect id="SVGID_00000026864899524965390060000005716203320131058332_" x="153.7" y="32.8" width="54.3" height="1.1"/>
				</defs>
				
					<clipPath id="SVGID_00000088849823133716909810000010134795327395727775_" style="clip-path:url(#SVGID_00000007393055700277833500000018057077414806740671_);">
					<use xlink:href="#SVGID_00000026864899524965390060000005716203320131058332_"  style="overflow:visible;"/>
				</clipPath>
				
					<rect x="-53622.1" y="94.1" transform="matrix(0.9999 -1.005610e-02 1.005610e-02 0.9999 -4.4108 -268.7853)" style="clip-path:url(#SVGID_00000088849823133716909810000010134795327395727775_);fill:#FFFFFF;" width="53783.9" height="420.1"/>
				
					<rect x="213.6" y="-447.3" transform="matrix(0.9999 -1.005610e-02 1.005610e-02 0.9999 3.7557 272.5637)" style="clip-path:url(#SVGID_00000088849823133716909810000010134795327395727775_);" width="53783.9" height="420.1"/>
				<g>
					<defs>
						
							<rect id="SVGID_00000065059193701551506840000012082726131953482636_" x="153.7" y="-176.6" transform="matrix(0.9999 -1.005601e-02 1.005601e-02 0.9999 -0.3275 1.8892)" width="68.1" height="420.1"/>
					</defs>
					
						<clipPath id="SVGID_00000149342760083638591130000013989223037798854038_" style="clip-path:url(#SVGID_00000088849823133716909810000010134795327395727775_);">
						<use xlink:href="#SVGID_00000065059193701551506840000012082726131953482636_"  style="overflow:visible;"/>
					</clipPath>
					
						<g transform="matrix(1 0 -9.313226e-10 1 1.525879e-05 0)" style="clip-path:url(#SVGID_00000149342760083638591130000013989223037798854038_);">
						
							<image style="overflow:visible;" width="256" height="1" xlink:href="7A95C7A9.jpg"  transform="matrix(0.266 -2.675078e-03 4.2249 420.1121 151.5402 -176.199)">
						</image>
					</g>
				</g>
			</g>
		</g>
	</mask>
	
		<rect x="153.7" y="32.8" style="clip-path:url(#SVGID_00000007393055700277833500000018057077414806740671_);mask:url(#SVGID_00000125576935096595393780000002181925454659588999_);fill-rule:evenodd;clip-rule:evenodd;fill:#00689D;" width="54.3" height="1.1"/>
	<defs>
		
			<filter id="Adobe_OpacityMaskFilter_00000007423898704890952630000016224318281408918147_" filterUnits="userSpaceOnUse" x="235" y="31.2" width="41.8" height="1.1">
			<feColorMatrix  type="matrix" values="1 0 0 0 0  0 1 0 0 0  0 0 1 0 0  0 0 0 1 0"/>
		</filter>
	</defs>
	
		<mask maskUnits="userSpaceOnUse" x="235" y="31.2" width="41.8" height="1.1" id="SVGID_00000119112775799939640550000004470550597255879356_">
		<g style="filter:url(#Adobe_OpacityMaskFilter_00000007423898704890952630000016224318281408918147_);">
			<g>
				<defs>
					<rect id="SVGID_00000167374417434380388640000004396216702845711765_" x="235" y="31.2" width="41.8" height="1.1"/>
				</defs>
				
					<clipPath id="SVGID_00000002352418391665947250000012442217488347420338_" style="clip-path:url(#SVGID_00000007393055700277833500000018057077414806740671_);">
					<use xlink:href="#SVGID_00000167374417434380388640000004396216702845711765_"  style="overflow:visible;"/>
				</clipPath>
				
					<rect x="-78641.5" y="240.2" transform="matrix(0.9999 -1.308791e-02 1.308791e-02 0.9999 -10.5342 -512.9856)" style="clip-path:url(#SVGID_00000002352418391665947250000012442217488347420338_);fill:#FFFFFF;" width="78885.1" height="616.2"/>
				
					<rect x="278.7" y="-792.8" transform="matrix(0.9999 -1.308791e-02 1.308791e-02 0.9999 9.745 519.8268)" style="clip-path:url(#SVGID_00000002352418391665947250000012442217488347420338_);" width="78885.1" height="616.2"/>
				<g>
					<defs>
						
							<rect id="SVGID_00000020363372198059755440000016681907210639428538_" x="235" y="-276.3" transform="matrix(0.9999 -1.308780e-02 1.308780e-02 0.9999 -0.3946 3.4206)" width="52.3" height="616.2"/>
					</defs>
					
						<clipPath id="SVGID_00000163786266303130295430000006392767760547958180_" style="clip-path:url(#SVGID_00000002352418391665947250000012442217488347420338_);">
						<use xlink:href="#SVGID_00000020363372198059755440000016681907210639428538_"  style="overflow:visible;"/>
					</clipPath>
					
						<g transform="matrix(1 0 9.313226e-10 1 0 0)" style="clip-path:url(#SVGID_00000163786266303130295430000006392767760547958180_);">
						
							<image style="overflow:visible;" width="256" height="1" xlink:href="7A95C7AB.jpg"  transform="matrix(0.2044 -2.675078e-03 8.0654 616.1964 230.9601 -275.8948)">
						</image>
					</g>
				</g>
			</g>
		</g>
	</mask>
	
		<rect x="235" y="31.2" style="clip-path:url(#SVGID_00000007393055700277833500000018057077414806740671_);mask:url(#SVGID_00000119112775799939640550000004470550597255879356_);fill-rule:evenodd;clip-rule:evenodd;fill:#00689D;" width="41.8" height="1.1"/>
	<defs>
		
			<filter id="Adobe_OpacityMaskFilter_00000071526790955904200700000009633318626309685121_" filterUnits="userSpaceOnUse" x="235" y="32.8" width="41.8" height="1.1">
			<feColorMatrix  type="matrix" values="1 0 0 0 0  0 1 0 0 0  0 0 1 0 0  0 0 0 1 0"/>
		</filter>
	</defs>
	
		<mask maskUnits="userSpaceOnUse" x="235" y="32.8" width="41.8" height="1.1" id="SVGID_00000049193618154961649770000015423337971789651643_">
		<g style="filter:url(#Adobe_OpacityMaskFilter_00000071526790955904200700000009633318626309685121_);">
			<g>
				<defs>
					<rect id="SVGID_00000099647290000235976880000000370429087401272228_" x="235" y="32.8" width="41.8" height="1.1"/>
				</defs>
				
					<clipPath id="SVGID_00000102510936847620478220000009976953508131082935_" style="clip-path:url(#SVGID_00000007393055700277833500000018057077414806740671_);">
					<use xlink:href="#SVGID_00000099647290000235976880000000370429087401272228_"  style="overflow:visible;"/>
				</clipPath>
				
					<rect x="-79235.7" y="243.5" transform="matrix(0.9999 -1.308791e-02 1.308791e-02 0.9999 -10.6322 -516.873)" style="clip-path:url(#SVGID_00000102510936847620478220000009976953508131082935_);fill:#FFFFFF;" width="79479.3" height="620.9"/>
				
					<rect x="278.7" y="-797.3" transform="matrix(0.9999 -1.308791e-02 1.308791e-02 0.9999 9.7997 523.7146)" style="clip-path:url(#SVGID_00000102510936847620478220000009976953508131082935_);" width="79479.3" height="620.9"/>
				<g>
					<defs>
						
							<rect id="SVGID_00000017493186964885748280000005785720079497164444_" x="235" y="-276.9" transform="matrix(0.9999 -1.308780e-02 1.308780e-02 0.9999 -0.4163 3.4208)" width="52.3" height="620.9"/>
					</defs>
					
						<clipPath id="SVGID_00000128444725475072994430000006560557217685784469_" style="clip-path:url(#SVGID_00000102510936847620478220000009976953508131082935_);">
						<use xlink:href="#SVGID_00000017493186964885748280000005785720079497164444_"  style="overflow:visible;"/>
					</clipPath>
					<g style="clip-path:url(#SVGID_00000128444725475072994430000006560557217685784469_);">
						
							<image style="overflow:visible;" width="256" height="1" xlink:href="7A95C7A6.jpg"  transform="matrix(0.2044 -2.675078e-03 8.1261 620.838 230.9297 -276.562)">
						</image>
					</g>
				</g>
			</g>
		</g>
	</mask>
	
		<rect x="235" y="32.8" style="clip-path:url(#SVGID_00000007393055700277833500000018057077414806740671_);mask:url(#SVGID_00000049193618154961649770000015423337971789651643_);fill-rule:evenodd;clip-rule:evenodd;fill:#00689D;" width="41.8" height="1.1"/>
	<path style="clip-path:url(#SVGID_00000007393055700277833500000018057077414806740671_);fill:#00689D;" d="M96.7,22.6
		c0.2-0.3,0.5-1.1,1.1-2.2c0.5-1,1.3-2.5,2.4-4.5c0.6-1.1,1.2-2.1,1.8-2.9c0.3-0.5,0.6-0.8,1-0.9c0.2-0.1,0.3-0.1,0.5,0
		c0.1,0,0.2,0.1,0.2,0.2c0,0.2,0,0.5-0.2,1c0,0.1-0.2,0.6-0.6,1.4c-0.6,1.5-1,2.6-1.2,3.2c-0.5,1.7-0.9,3.1-1.1,4.3
		c-0.1,0.7-0.1,1.2-0.1,1.4c0,0.1,0,0.1,0.1,0.2c0.1,0.2,0.1,0.3,0.1,0.3c0.7,0.5,3.3-1.7,4-3.6c0.1-0.3,0.4-1.5-0.2-2
		c-0.9-0.6-3.4-0.2-2.9-0.3c4.1-0.9,5.3-4.6,2.9-5.9c-0.1-0.1-0.3-0.2-0.4-0.3c-0.3-0.2-0.2-0.4,0.4-0.7c0.1,0,0.3-0.1,0.4-0.1
		c0.1,0,0.3,0.1,0.4,0.1c0,0,0.1,0,0.2,0.1c0.6,0.4,2.3,1.8,1,6.8c-0.6,2.3-3.7,6.9-6.3,6.6c-0.2,0-0.4,0-0.5-0.1
		c-0.1-0.1-0.2-0.3-0.3-0.5c-0.3-1.5,0.6-4.9,2.8-10.2c-1.3,1.9-2.7,4.5-4.2,7.7c-0.3,0.7-0.6,1.2-0.8,1.5c-0.2,0.3-0.5,0.5-0.7,0.5
		c-0.3,0.1-0.5,0.1-0.6-0.1c-0.1-0.1-0.2-0.2-0.2-0.4c-0.3-1.3,0.3-3.7,1.6-7.1c-0.6,0.8-1.1,1.6-1.5,2.5c-0.8,1.7-1.6,3.3-2.1,5
		c-0.3,0.8-0.6,1.8-1,3.1c-0.2,0.7-0.5,1.1-0.9,1.2c-0.1,0-0.2,0-0.3,0c-0.1,0-0.1-0.1-0.1-0.1c0-0.1,0-0.4,0.2-0.9
		c0.3-1.1,0.6-2,0.8-2.5c1-2.6,2.2-5.2,3.7-7.8c0.6-1.1,1.1-1.8,1.4-2.1c0.3-0.3,0.5-0.6,0.7-0.6c0.1,0,0.3,0,0.4,0
		c0.2,0.1,0.3,0.2,0.3,0.3c0,0.2,0,0.5-0.3,0.9c-0.6,1.3-1.1,2.7-1.5,4.2C96.9,20.6,96.7,21.7,96.7,22.6"/>
	
		<path style="clip-path:url(#SVGID_00000007393055700277833500000018057077414806740671_);fill:none;stroke:#EF7C00;stroke-width:0.5346;stroke-linecap:round;stroke-miterlimit:2.6131;" d="
		M88,28.9c-2.4-4-2.9-7.9-0.9-10.9c2.6-3.9,7.3-6,11.8-8l10.8-5.3l0,11.1c0.2,4.7,0.6,9.7-2.3,13.7c-2.7,3.7-6.7,4.6-10,4.3"/>
	
		<path style="clip-path:url(#SVGID_00000007393055700277833500000018057077414806740671_);fill:none;stroke:#006B29;stroke-width:0.7562;stroke-linecap:round;stroke-miterlimit:2.6131;" d="
		M89.7,27.8c-2.1-3.5-2.6-6.8-0.9-9.4C91,15,95.1,13.3,99,11.6l9.3-4.5l0.1,9.6c0.2,4.1,0.7,8.4-1.8,11.7c-2.3,3.1-5.8,3.9-8.7,3.6"
		/>
	
		<path style="clip-path:url(#SVGID_00000007393055700277833500000018057077414806740671_);fill-rule:evenodd;clip-rule:evenodd;fill:#00689D;" d="
		M111.1,5.8c0,0,4.1,1.6,4.8,2.7c0.1,0.2,2.4,2.9,2.6,5.3c0.2,2.4-1.4,3.9-3.5,5.3c-2.4,1.5-4.2,3.3-4,4.9c0.3,1.9,2.8,2.8,4.5,2.6
		c1.7-0.2,2.5-0.9,2.8-1.9c0.2-0.8-0.2-1.5-1.5-2c-0.5,0-0.8,0.1-0.9,0.4c-0.2,0.6,0.7,0.7,0.8,1.1c0.3,0.9-0.7,1.4-1.6,1.5
		c-0.9,0.1-2-0.9-2-1.6c0-1.8,1.8-3.1,4.2-4.5c2.2-1.3,3.5-3,3.6-5.6c0.1-2.2-0.5-4.1-1.4-6c-0.8-1.6-0.1-5.6-0.3-5.4
		c-0.8,0.8-1.4,1.8-1.5,3c-0.7-1.2-1.8-1.8-3-2.2c0.3,1.1-0.2,1.9,0.2,3C113.3,5.6,112.6,5.4,111.1,5.8"/>
	<path style="clip-path:url(#SVGID_00000007393055700277833500000018057077414806740671_);fill:#00689D;" d="M111.3,8.8
		c-0.1,0-0.2-0.1-0.2-0.2c0-0.1,0.1-0.2,0.2-0.2c1.5-0.1,2.7,0.3,3.7,1c1,0.7,1.8,1.8,2.3,3.3c0,0.1,0,0.2-0.1,0.3
		c-0.1,0-0.2,0-0.3-0.1c-0.5-1.4-1.3-2.4-2.2-3.1C113.8,9.1,112.6,8.8,111.3,8.8"/>
	
		<path style="clip-path:url(#SVGID_00000007393055700277833500000018057077414806740671_);fill-rule:evenodd;clip-rule:evenodd;fill:#005C71;" d="
		M114.5,10.5c0.5,0.1,0.7,0.5,0.6,0.9c-0.1,0.4-0.6,0.6-1,0.5c-0.5-0.1-0.7-0.5-0.6-0.9C113.6,10.6,114.1,10.4,114.5,10.5"/>
	
		<path style="clip-path:url(#SVGID_00000007393055700277833500000018057077414806740671_);fill-rule:evenodd;clip-rule:evenodd;fill:#008788;" d="
		M114.4,11.6c0.3-0.1,0.5-0.3,0.4-0.6c-0.1-0.2-0.1,0-0.4,0.3c-0.3,0.3-0.8-0.3-0.7,0C113.8,11.5,114.1,11.7,114.4,11.6"/>
	<path style="clip-path:url(#SVGID_00000007393055700277833500000018057077414806740671_);fill:#FFFFFF;" d="M115.9,8
		c-0.1,0-0.2-0.1-0.2-0.2c0-0.1,0.1-0.2,0.2-0.2c0.6,0,1.2-0.1,1.7-0.2c0.5-0.2,0.9-0.4,1.3-0.7c0.1-0.1,0.2-0.1,0.3,0
		c0.1,0.1,0.1,0.2,0,0.3c-0.4,0.4-0.9,0.6-1.4,0.8C117.1,8,116.5,8,115.9,8"/>
	<path style="clip-path:url(#SVGID_00000007393055700277833500000018057077414806740671_);fill:#FFFFFF;" d="M115.3,7.5
		c-0.1,0-0.2-0.1-0.2-0.2c0-0.1,0.1-0.2,0.2-0.2c0.6,0.1,1.2,0,1.7-0.1c0.5-0.1,0.9-0.3,1.2-0.6c0.1-0.1,0.2-0.1,0.3,0
		c0.1,0.1,0.1,0.2,0,0.3c-0.4,0.3-0.9,0.6-1.4,0.7C116.6,7.5,115.9,7.5,115.3,7.5"/>
	<path style="clip-path:url(#SVGID_00000007393055700277833500000018057077414806740671_);fill:#FFFFFF;" d="M114.8,6.9
		c-0.1,0-0.2-0.1-0.2-0.2c0-0.1,0.1-0.2,0.3-0.2c0.6,0.1,1.2,0.1,1.7,0c0.5-0.1,0.9-0.3,1.3-0.5c0.1-0.1,0.2-0.1,0.3,0
		c0.1,0.1,0.1,0.2,0,0.3c-0.4,0.3-0.9,0.5-1.5,0.6C116.1,7,115.5,7,114.8,6.9"/>
	
		<path style="clip-path:url(#SVGID_00000007393055700277833500000018057077414806740671_);fill-rule:evenodd;clip-rule:evenodd;fill:#E3000F;" d="
		M117.2,6.8c0.2,0,0.3,0.1,0.3,0.3c0,0.2-0.2,0.3-0.3,0.3c-0.2,0-0.3-0.1-0.3-0.3C116.8,7,117,6.8,117.2,6.8"/>
	<path style="clip-path:url(#SVGID_00000007393055700277833500000018057077414806740671_);fill:#F4BC00;" d="M117.3,7
		c0,0-0.1-0.1-0.2-0.1c-0.1,0-0.1,0-0.2,0.1l0,0c0,0-0.1,0.1-0.1,0.2c0,0.1,0,0.1,0.1,0.2c0,0,0.1,0.1,0.2,0.1c0.1,0,0.1,0,0.2-0.1
		c0,0,0.1-0.1,0.1-0.2C117.4,7.1,117.4,7,117.3,7 M117.2,6.8c0.1,0,0.2,0,0.3,0.1c0.1,0.1,0.1,0.2,0.1,0.3s0,0.2-0.1,0.3h0
		c-0.1,0.1-0.2,0.1-0.3,0.1c-0.1,0-0.2,0-0.3-0.1l0,0c-0.1-0.1-0.1-0.2-0.1-0.3s0-0.2,0.1-0.3v0C116.9,6.8,117,6.8,117.2,6.8z"/>
	
		<polygon style="clip-path:url(#SVGID_00000007393055700277833500000018057077414806740671_);fill-rule:evenodd;clip-rule:evenodd;fill:#00689D;" points="
		120.6,19.6 118.1,17.8 115.7,15.9 116.4,15.6 117.1,15.3 118.8,17.4 	"/>
	<path style="clip-path:url(#SVGID_00000007393055700277833500000018057077414806740671_);fill:#00689D;" d="M113.4,10.1
		c-0.3-0.1-0.6-0.1-0.8-0.2c0,0.2,0.1,0.4,0.2,0.6c0.2,0.3,0.4,0.6,0.8,0.8c0.4,0.3,0.9,0.5,1.3,0.7c0.3,0.1,0.7,0.2,1.1,0.3
		c-0.1-0.2-0.2-0.5-0.4-0.7c-0.2-0.3-0.6-0.7-1-1C114.2,10.4,113.8,10.2,113.4,10.1 M112.4,9.6c0.4,0,0.8,0.1,1.2,0.2
		c0.4,0.1,0.8,0.3,1.3,0.6c0.5,0.3,0.9,0.7,1.1,1.1c0.3,0.4,0.4,0.8,0.5,1.2l0.1,0.3l-0.3-0.1c-0.5-0.1-1-0.2-1.5-0.4
		c-0.5-0.2-1-0.4-1.4-0.7c-0.4-0.3-0.7-0.6-0.9-0.9c-0.2-0.3-0.3-0.7-0.3-1l0-0.2L112.4,9.6z"/>
	
		<path style="clip-path:url(#SVGID_00000007393055700277833500000018057077414806740671_);fill-rule:evenodd;clip-rule:evenodd;" d="
		M229.2,62.9c-0.1,0-0.3,0-0.4,0c-0.1,0-0.3-0.1-0.4-0.1c-0.1-0.1-0.2-0.1-0.3-0.2l0.2-0.2c0.1,0.1,0.3,0.2,0.4,0.3
		c0.2,0.1,0.3,0.1,0.5,0.1c0.3,0,0.5-0.1,0.6-0.2c0.1-0.1,0.2-0.3,0.2-0.5v0c0-0.1,0-0.2-0.1-0.3c-0.1-0.1-0.1-0.1-0.2-0.2
		c-0.1,0-0.2-0.1-0.4-0.1c0,0,0,0,0,0c0,0,0,0,0,0l-0.1,0c-0.2,0-0.4-0.1-0.5-0.1c-0.1,0-0.2-0.1-0.3-0.2c-0.1-0.1-0.1-0.3-0.1-0.5
		v0c0-0.2,0-0.4,0.1-0.5c0.1-0.1,0.2-0.2,0.4-0.3c0.2-0.1,0.4-0.1,0.6-0.1c0.1,0,0.2,0,0.3,0c0.1,0,0.2,0.1,0.3,0.1
		c0.1,0,0.2,0.1,0.3,0.2l-0.2,0.2c-0.1-0.1-0.3-0.2-0.4-0.2c-0.1,0-0.3-0.1-0.4-0.1c-0.3,0-0.4,0.1-0.6,0.2
		c-0.1,0.1-0.2,0.3-0.2,0.5v0c0,0.1,0,0.2,0.1,0.3c0.1,0.1,0.2,0.1,0.3,0.2c0.1,0,0.2,0.1,0.4,0.1c0,0,0,0,0,0c0,0,0,0,0,0
		c0,0,0,0,0,0c0,0,0,0,0,0c0.2,0,0.4,0.1,0.5,0.1c0.1,0.1,0.2,0.1,0.3,0.2c0.1,0.1,0.1,0.3,0.1,0.5v0c0,0.2,0,0.4-0.1,0.5
		c-0.1,0.1-0.2,0.2-0.4,0.3C229.6,62.8,229.4,62.9,229.2,62.9 M226,62.5h0.3V63l-0.3,0.4V62.5z M224.4,60.6h1v0.3h-1V60.6z
		 M225.2,62.8c-0.2,0-0.3-0.1-0.4-0.2c-0.1-0.1-0.1-0.3-0.1-0.4v-2.3h0.3v2.3c0,0.1,0,0.2,0.1,0.2c0,0.1,0.1,0.1,0.2,0.1h0.2v0.3
		H225.2z M223.2,62.9c-0.2,0-0.4,0-0.5-0.1c-0.1-0.1-0.3-0.2-0.3-0.3c-0.1-0.2-0.1-0.3-0.1-0.5v-0.3c0-0.2,0-0.4,0.1-0.6
		c0.1-0.2,0.2-0.3,0.3-0.4c0.1-0.1,0.3-0.1,0.5-0.1c0.2,0,0.3,0,0.5,0.1c0.1,0.1,0.2,0.2,0.3,0.4c0.1,0.2,0.1,0.3,0.1,0.6v0.3h-1.6
		v-0.3h1.3v0c0-0.2-0.1-0.4-0.2-0.5c-0.1-0.1-0.2-0.2-0.4-0.2c-0.2,0-0.4,0.1-0.5,0.2c-0.1,0.1-0.2,0.3-0.2,0.6v0.3
		c0,0.2,0.1,0.4,0.2,0.5c0.1,0.1,0.3,0.2,0.5,0.2c0.1,0,0.2,0,0.3-0.1c0.1,0,0.2-0.1,0.3-0.2l0.2,0.2c-0.1,0.1-0.2,0.2-0.4,0.3
		C223.5,62.8,223.3,62.9,223.2,62.9z M220.8,62.9c-0.2,0-0.4,0-0.5-0.1c-0.1-0.1-0.3-0.2-0.3-0.3c-0.1-0.2-0.1-0.3-0.1-0.5v-0.3
		c0-0.2,0-0.4,0.1-0.6c0.1-0.2,0.2-0.3,0.3-0.4c0.1-0.1,0.3-0.1,0.5-0.1c0.2,0,0.3,0,0.5,0.1c0.1,0.1,0.2,0.2,0.3,0.4
		c0.1,0.2,0.1,0.3,0.1,0.6v0.3h-1.6v-0.3h1.3v0c0-0.2-0.1-0.4-0.2-0.5c-0.1-0.1-0.2-0.2-0.4-0.2c-0.2,0-0.4,0.1-0.5,0.2
		c-0.1,0.1-0.2,0.3-0.2,0.6v0.3c0,0.2,0.1,0.4,0.2,0.5c0.1,0.1,0.3,0.2,0.5,0.2c0.1,0,0.2,0,0.3-0.1c0.1,0,0.2-0.1,0.3-0.2l0.2,0.2
		c-0.1,0.1-0.2,0.2-0.4,0.3C221.1,62.8,221,62.9,220.8,62.9z M219.4,61c0,0-0.1-0.1-0.2-0.1c-0.1,0-0.1,0-0.2,0
		c-0.2,0-0.3,0-0.4,0.2c-0.1,0.1-0.2,0.2-0.2,0.4l0-0.4c0.1-0.1,0.2-0.2,0.3-0.3c0.1-0.1,0.3-0.1,0.4-0.1c0.1,0,0.2,0,0.3,0
		c0.1,0,0.2,0.1,0.2,0.1L219.4,61z M218.1,60.6h0.3v2.3h-0.3V60.6z M216.5,60.6h1v0.3h-1V60.6z M217.2,62.8c-0.2,0-0.3-0.1-0.4-0.2
		c-0.1-0.1-0.1-0.3-0.1-0.4v-2.3h0.3v2.3c0,0.1,0,0.2,0.1,0.2c0,0.1,0.1,0.1,0.2,0.1h0.2v0.3H217.2z M214.9,62.9c-0.1,0-0.3,0-0.4,0
		c-0.1,0-0.3-0.1-0.4-0.1c-0.1-0.1-0.2-0.1-0.3-0.2l0.2-0.2c0.1,0.1,0.3,0.2,0.4,0.3c0.2,0.1,0.3,0.1,0.5,0.1c0.3,0,0.5-0.1,0.6-0.2
		c0.1-0.1,0.2-0.3,0.2-0.5v0c0-0.1,0-0.2-0.1-0.3c-0.1-0.1-0.1-0.1-0.2-0.2c-0.1,0-0.2-0.1-0.4-0.1c0,0,0,0,0,0c0,0,0,0,0,0l-0.1,0
		c-0.2,0-0.4-0.1-0.5-0.1c-0.1,0-0.2-0.1-0.3-0.2c-0.1-0.1-0.1-0.3-0.1-0.5v0c0-0.2,0-0.4,0.1-0.5c0.1-0.1,0.2-0.2,0.4-0.3
		c0.2-0.1,0.4-0.1,0.6-0.1c0.1,0,0.2,0,0.3,0c0.1,0,0.2,0.1,0.3,0.1c0.1,0,0.2,0.1,0.3,0.2l-0.2,0.2c-0.1-0.1-0.3-0.2-0.4-0.2
		c-0.1,0-0.3-0.1-0.4-0.1c-0.3,0-0.4,0.1-0.6,0.2c-0.1,0.1-0.2,0.3-0.2,0.5v0c0,0.1,0,0.2,0.1,0.3c0.1,0.1,0.2,0.1,0.3,0.2
		c0.1,0,0.2,0.1,0.4,0.1c0,0,0,0,0,0c0,0,0,0,0,0c0,0,0,0,0,0c0,0,0,0,0,0c0.2,0,0.4,0.1,0.5,0.1c0.1,0.1,0.2,0.1,0.3,0.2
		c0.1,0.1,0.1,0.3,0.1,0.5v0c0,0.2,0,0.4-0.1,0.5c-0.1,0.1-0.2,0.2-0.4,0.3C215.4,62.8,215.2,62.9,214.9,62.9z M211.8,62.2
		c0,0.1,0,0.2,0.1,0.2c0,0.1,0.1,0.1,0.2,0.1h0.2v0.3h-0.3c-0.2,0-0.3-0.1-0.4-0.2c-0.1-0.1-0.1-0.3-0.1-0.4v-2.6h0.3V62.2z
		 M210.5,60.6h0.3v2.3h-0.3V60.6z M210.5,59.6h0.3V60h-0.3V59.6z M208.9,62.6c0.2,0,0.3-0.1,0.4-0.2c0.1-0.1,0.2-0.3,0.2-0.5v-0.4
		c0-0.2-0.1-0.4-0.2-0.5c-0.1-0.1-0.3-0.2-0.4-0.2c-0.2,0-0.3,0.1-0.4,0.2c-0.1,0.1-0.2,0.3-0.2,0.5v0.4c0,0.2,0.1,0.4,0.2,0.5
		C208.6,62.5,208.7,62.6,208.9,62.6z M208.9,62.9c-0.2,0-0.4,0-0.5-0.1c-0.1-0.1-0.2-0.2-0.3-0.3c-0.1-0.1-0.1-0.3-0.1-0.5v-0.4
		c0-0.2,0-0.4,0.1-0.5c0.1-0.1,0.2-0.3,0.3-0.3c0.1-0.1,0.3-0.1,0.5-0.1c0.2,0,0.4,0,0.5,0.1c0.1,0.1,0.2,0.2,0.3,0.3
		c0.1,0.1,0.1,0.3,0.1,0.5v0.4c0,0.2,0,0.4-0.1,0.5c-0.1,0.1-0.2,0.3-0.3,0.3C209.3,62.8,209.1,62.9,208.9,62.9z M206.3,61.1
		l0.2-0.3l1.2,2h-0.4L206.3,61.1z M205.3,59.6h0.3v3.2h-0.3V59.6z M205.5,61.9l1.7-2.2h0.4l-2,2.5L205.5,61.9z M201.7,60.6h0.3
		l0.7,2.1l-0.2,0.4L201.7,60.6z M203.7,60.6l-0.9,2.8c0,0.1-0.1,0.2-0.1,0.2c-0.1,0.1-0.1,0.1-0.2,0.1c-0.1,0-0.2,0-0.3,0H202v-0.3
		h0.1c0.1,0,0.2,0,0.3-0.1c0.1-0.1,0.1-0.1,0.2-0.3l0.8-2.6H203.7z M199.6,61.4c0-0.2,0-0.4-0.1-0.5c-0.1-0.1-0.2-0.2-0.4-0.2
		c-0.2,0-0.3,0-0.4,0.1c-0.1,0.1-0.1,0.2-0.1,0.4l0-0.4c0.1-0.2,0.2-0.3,0.3-0.3c0.1-0.1,0.3-0.1,0.4-0.1c0.2,0,0.3,0,0.4,0.1
		c0.1,0.1,0.2,0.2,0.2,0.3c0.1,0.1,0.1,0.3,0.1,0.5v1.4h-0.3V61.4z M198.2,60.6h0.3v2.3h-0.3V60.6z M201,61.4c0-0.2,0-0.4-0.1-0.5
		c-0.1-0.1-0.2-0.2-0.4-0.2c-0.2,0-0.3,0.1-0.4,0.2c-0.1,0.1-0.1,0.3-0.1,0.5l-0.1-0.3c0.1-0.2,0.2-0.3,0.3-0.4
		c0.1-0.1,0.3-0.1,0.5-0.1c0.2,0,0.3,0,0.4,0.1c0.1,0.1,0.2,0.2,0.3,0.3c0.1,0.1,0.1,0.3,0.1,0.5v1.4H201V61.4z M196.6,62.9
		c-0.3,0-0.5-0.1-0.6-0.2c-0.1-0.1-0.2-0.3-0.2-0.5c0-0.2,0.1-0.4,0.2-0.5c0.1-0.1,0.3-0.2,0.6-0.2h0.7l0,0.3h-0.8
		c-0.1,0-0.3,0-0.3,0.1c-0.1,0.1-0.1,0.2-0.1,0.3c0,0.1,0,0.2,0.1,0.3c0.1,0.1,0.2,0.1,0.4,0.1c0.2,0,0.3,0,0.4-0.1
		c0.1,0,0.2-0.1,0.2-0.2l0,0.3c0,0-0.1,0.1-0.2,0.1c-0.1,0-0.1,0.1-0.2,0.1C196.8,62.8,196.7,62.9,196.6,62.9z M197.3,61.4
		c0-0.2,0-0.3-0.1-0.4c-0.1-0.1-0.2-0.2-0.4-0.2c-0.1,0-0.2,0-0.3,0.1c-0.1,0-0.2,0.1-0.3,0.1l-0.2-0.2c0.1-0.1,0.2-0.2,0.3-0.2
		c0.1-0.1,0.3-0.1,0.5-0.1c0.2,0,0.3,0,0.5,0.1c0.1,0.1,0.2,0.2,0.3,0.3c0.1,0.1,0.1,0.3,0.1,0.5v1.5h-0.3V61.4z M192.4,60.6h0.3
		l0.5,1.8l0.6-1.8h0.2l0.6,1.8l0.5-1.8h0.3l-0.7,2.3h-0.3l-0.6-1.7l-0.6,1.7h-0.3L192.4,60.6z M190.8,62.9c-0.1,0-0.3,0-0.4,0
		c-0.1,0-0.3-0.1-0.4-0.1c-0.1-0.1-0.2-0.1-0.3-0.2l0.2-0.2c0.1,0.1,0.3,0.2,0.4,0.3c0.2,0.1,0.3,0.1,0.5,0.1c0.3,0,0.5-0.1,0.6-0.2
		c0.1-0.1,0.2-0.3,0.2-0.5v0c0-0.1,0-0.2-0.1-0.3c-0.1-0.1-0.1-0.1-0.2-0.2c-0.1,0-0.2-0.1-0.4-0.1c0,0,0,0,0,0c0,0,0,0,0,0l-0.1,0
		c-0.2,0-0.4-0.1-0.5-0.1c-0.1,0-0.2-0.1-0.3-0.2c-0.1-0.1-0.1-0.3-0.1-0.5v0c0-0.2,0-0.4,0.1-0.5c0.1-0.1,0.2-0.2,0.4-0.3
		c0.2-0.1,0.4-0.1,0.6-0.1c0.1,0,0.2,0,0.3,0c0.1,0,0.2,0.1,0.3,0.1c0.1,0,0.2,0.1,0.3,0.2l-0.2,0.2c-0.1-0.1-0.3-0.2-0.4-0.2
		c-0.1,0-0.3-0.1-0.4-0.1c-0.3,0-0.4,0.1-0.6,0.2c-0.1,0.1-0.2,0.3-0.2,0.5v0c0,0.1,0,0.2,0.1,0.3c0.1,0.1,0.2,0.1,0.3,0.2
		c0.1,0,0.2,0.1,0.4,0.1c0,0,0,0,0,0c0,0,0,0,0,0c0,0,0,0,0,0c0,0,0,0,0,0c0.2,0,0.4,0.1,0.5,0.1c0.1,0.1,0.2,0.1,0.3,0.2
		c0.1,0.1,0.1,0.3,0.1,0.5v0c0,0.2,0,0.4-0.1,0.5c-0.1,0.1-0.2,0.2-0.4,0.3C191.3,62.8,191.1,62.9,190.8,62.9z M187.1,62.9
		c-0.3,0-0.5-0.1-0.6-0.2c-0.1-0.1-0.2-0.3-0.2-0.5c0-0.2,0.1-0.4,0.2-0.5c0.1-0.1,0.3-0.2,0.6-0.2h0.7l0,0.3H187
		c-0.1,0-0.3,0-0.3,0.1c-0.1,0.1-0.1,0.2-0.1,0.3c0,0.1,0,0.2,0.1,0.3c0.1,0.1,0.2,0.1,0.4,0.1c0.2,0,0.3,0,0.4-0.1
		c0.1,0,0.2-0.1,0.2-0.2l0,0.3c0,0-0.1,0.1-0.2,0.1c-0.1,0-0.1,0.1-0.2,0.1C187.3,62.8,187.2,62.9,187.1,62.9z M187.7,61.4
		c0-0.2,0-0.3-0.1-0.4c-0.1-0.1-0.2-0.2-0.4-0.2c-0.1,0-0.2,0-0.3,0.1c-0.1,0-0.2,0.1-0.3,0.1l-0.2-0.2c0.1-0.1,0.2-0.2,0.3-0.2
		c0.1-0.1,0.3-0.1,0.5-0.1c0.2,0,0.3,0,0.5,0.1c0.1,0.1,0.2,0.2,0.3,0.3c0.1,0.1,0.1,0.3,0.1,0.5v1.5h-0.3V61.4z M185.3,60.6h0.3
		v2.3h-0.3V60.6z M185.3,59.6h0.3V60h-0.3V59.6z M184.3,61.4c0-0.2-0.1-0.4-0.2-0.5c-0.1-0.1-0.2-0.2-0.4-0.2c-0.2,0-0.3,0-0.4,0.1
		c-0.1,0.1-0.1,0.2-0.1,0.4l0-0.4c0.1-0.1,0.2-0.3,0.3-0.3c0.1-0.1,0.3-0.1,0.4-0.1c0.2,0,0.4,0.1,0.6,0.2c0.1,0.2,0.2,0.4,0.2,0.7
		v1.4h-0.3V61.4z M182.8,60.6h0.3v2.3h-0.3V60.6z M181.2,62.9c-0.3,0-0.5-0.1-0.6-0.2c-0.1-0.1-0.2-0.3-0.2-0.5
		c0-0.2,0.1-0.4,0.2-0.5c0.1-0.1,0.3-0.2,0.6-0.2h0.7l0,0.3h-0.8c-0.1,0-0.3,0-0.3,0.1c-0.1,0.1-0.1,0.2-0.1,0.3
		c0,0.1,0,0.2,0.1,0.3c0.1,0.1,0.2,0.1,0.4,0.1c0.2,0,0.3,0,0.4-0.1c0.1,0,0.2-0.1,0.2-0.2l0,0.3c0,0-0.1,0.1-0.2,0.1
		c-0.1,0-0.1,0.1-0.2,0.1C181.4,62.8,181.3,62.9,181.2,62.9z M181.9,61.4c0-0.2,0-0.3-0.1-0.4c-0.1-0.1-0.2-0.2-0.4-0.2
		c-0.1,0-0.2,0-0.3,0.1c-0.1,0-0.2,0.1-0.3,0.1l-0.2-0.2c0.1-0.1,0.2-0.2,0.3-0.2c0.1-0.1,0.3-0.1,0.5-0.1c0.2,0,0.3,0,0.5,0.1
		c0.1,0.1,0.2,0.2,0.3,0.3c0.1,0.1,0.1,0.3,0.1,0.5v1.5h-0.3V61.4z M178.2,61.4c0-0.2,0-0.4-0.1-0.5c-0.1-0.1-0.2-0.2-0.4-0.2
		c-0.2,0-0.3,0-0.4,0.1c-0.1,0.1-0.1,0.2-0.1,0.4l0-0.4c0.1-0.2,0.2-0.3,0.3-0.3c0.1-0.1,0.3-0.1,0.4-0.1c0.2,0,0.3,0,0.4,0.1
		c0.1,0.1,0.2,0.2,0.2,0.3c0.1,0.1,0.1,0.3,0.1,0.5v1.4h-0.3V61.4z M176.8,60.6h0.3v2.3h-0.3V60.6z M179.5,61.4c0-0.2,0-0.4-0.1-0.5
		c-0.1-0.1-0.2-0.2-0.4-0.2c-0.2,0-0.3,0.1-0.4,0.2c-0.1,0.1-0.1,0.3-0.1,0.5l-0.1-0.3c0.1-0.2,0.2-0.3,0.3-0.4
		c0.1-0.1,0.3-0.1,0.5-0.1c0.2,0,0.3,0,0.4,0.1c0.1,0.1,0.2,0.2,0.3,0.3c0.1,0.1,0.1,0.3,0.1,0.5v1.4h-0.3V61.4z M175.2,62.9
		c-0.3,0-0.5-0.1-0.6-0.2c-0.1-0.1-0.2-0.3-0.2-0.5c0-0.2,0.1-0.4,0.2-0.5c0.1-0.1,0.3-0.2,0.6-0.2h0.7l0,0.3h-0.8
		c-0.1,0-0.3,0-0.3,0.1c-0.1,0.1-0.1,0.2-0.1,0.3c0,0.1,0,0.2,0.1,0.3c0.1,0.1,0.2,0.1,0.4,0.1c0.2,0,0.3,0,0.4-0.1
		c0.1,0,0.2-0.1,0.2-0.2l0,0.3c0,0-0.1,0.1-0.2,0.1c-0.1,0-0.1,0.1-0.2,0.1C175.4,62.8,175.3,62.9,175.2,62.9z M175.8,61.4
		c0-0.2,0-0.3-0.1-0.4c-0.1-0.1-0.2-0.2-0.4-0.2c-0.1,0-0.2,0-0.3,0.1c-0.1,0-0.2,0.1-0.3,0.1l-0.2-0.2c0.1-0.1,0.2-0.2,0.3-0.2
		c0.1-0.1,0.3-0.1,0.5-0.1c0.2,0,0.3,0,0.5,0.1c0.1,0.1,0.2,0.2,0.3,0.3c0.1,0.1,0.1,0.3,0.1,0.5v1.5h-0.3V61.4z M173.9,61
		c0,0-0.1-0.1-0.2-0.1c-0.1,0-0.1,0-0.2,0c-0.2,0-0.3,0-0.4,0.2c-0.1,0.1-0.2,0.2-0.2,0.4l0-0.4c0.1-0.1,0.2-0.2,0.3-0.3
		c0.1-0.1,0.3-0.1,0.4-0.1c0.1,0,0.2,0,0.3,0c0.1,0,0.2,0.1,0.2,0.1L173.9,61z M172.6,60.6h0.3v2.3h-0.3V60.6z M170.2,59.6h0.3v3.2
		h-0.3V59.6z M171.2,62.9c-0.2,0-0.3,0-0.4-0.1c-0.1-0.1-0.2-0.2-0.3-0.3l0-0.5c0,0.1,0,0.2,0.1,0.3c0,0.1,0.1,0.2,0.2,0.2
		c0.1,0.1,0.2,0.1,0.3,0.1c0.2,0,0.3-0.1,0.4-0.2c0.1-0.1,0.2-0.3,0.2-0.5v-0.5c0-0.2-0.1-0.4-0.2-0.5c-0.1-0.1-0.2-0.2-0.4-0.2
		c-0.1,0-0.2,0-0.3,0.1c-0.1,0.1-0.2,0.1-0.2,0.2c0,0.1-0.1,0.2-0.1,0.3l0-0.4c0.1-0.1,0.2-0.3,0.3-0.3c0.1-0.1,0.3-0.1,0.4-0.1
		c0.2,0,0.3,0,0.4,0.1c0.1,0.1,0.2,0.2,0.3,0.3c0.1,0.1,0.1,0.3,0.1,0.5v0.5c0,0.2,0,0.4-0.1,0.5c-0.1,0.1-0.1,0.2-0.3,0.3
		C171.5,62.8,171.4,62.9,171.2,62.9z M168.1,61.9c0,0.2,0.1,0.4,0.2,0.5c0.1,0.1,0.2,0.2,0.4,0.2c0.2,0,0.3,0,0.4-0.2
		c0.1-0.1,0.2-0.2,0.2-0.4l0,0.5c-0.1,0.1-0.1,0.2-0.3,0.3c-0.1,0.1-0.3,0.1-0.5,0.1c-0.2,0-0.4-0.1-0.6-0.2
		c-0.1-0.2-0.2-0.4-0.2-0.7v-1.4h0.3V61.9z M169.3,60.6h0.3v2.3h-0.3V60.6z M166.1,62.9c-0.1,0-0.3,0-0.4,0c-0.1,0-0.3-0.1-0.4-0.1
		c-0.1-0.1-0.2-0.1-0.3-0.2l0.2-0.2c0.1,0.1,0.3,0.2,0.4,0.3c0.2,0.1,0.3,0.1,0.5,0.1c0.3,0,0.5-0.1,0.6-0.2
		c0.1-0.1,0.2-0.3,0.2-0.5v0c0-0.1,0-0.2-0.1-0.3c-0.1-0.1-0.1-0.1-0.2-0.2c-0.1,0-0.2-0.1-0.4-0.1c0,0,0,0,0,0c0,0,0,0,0,0l-0.1,0
		c-0.2,0-0.4-0.1-0.5-0.1c-0.1,0-0.2-0.1-0.3-0.2c-0.1-0.1-0.1-0.3-0.1-0.5v0c0-0.2,0-0.4,0.1-0.5c0.1-0.1,0.2-0.2,0.4-0.3
		c0.2-0.1,0.4-0.1,0.6-0.1c0.1,0,0.2,0,0.3,0c0.1,0,0.2,0.1,0.3,0.1c0.1,0,0.2,0.1,0.3,0.2l-0.2,0.2c-0.1-0.1-0.3-0.2-0.4-0.2
		c-0.1,0-0.3-0.1-0.4-0.1c-0.3,0-0.4,0.1-0.6,0.2c-0.1,0.1-0.2,0.3-0.2,0.5v0c0,0.1,0,0.2,0.1,0.3c0.1,0.1,0.2,0.1,0.3,0.2
		c0.1,0,0.2,0.1,0.4,0.1c0,0,0,0,0,0c0,0,0,0,0,0c0,0,0,0,0,0c0,0,0,0,0,0c0.2,0,0.4,0.1,0.5,0.1c0.1,0.1,0.2,0.1,0.3,0.2
		c0.1,0.1,0.1,0.3,0.1,0.5v0c0,0.2,0,0.4-0.1,0.5c-0.1,0.1-0.2,0.2-0.4,0.3C166.5,62.8,166.3,62.9,166.1,62.9z M162.9,62.5h0.3V63
		l-0.3,0.4V62.5z M162.3,59.9l-0.8,2.9h-0.3l0.8-2.9H161v0.6h-0.3v-0.9h1.7V59.9z M159.6,61h0.3v1.9h-0.3V61z M158.2,62.1l1-2.4h0.3
		l-1,2.4h1.6v0.3h-2V62.1z M156.6,63.4h-0.3l1.5-4.2h0.3L156.6,63.4z M155.1,61.1c0.1,0,0.2,0,0.3-0.1c0.1,0,0.2-0.1,0.2-0.2
		c0-0.1,0.1-0.2,0.1-0.3v0c0-0.1,0-0.2-0.1-0.3c0-0.1-0.1-0.1-0.2-0.2c-0.1,0-0.2-0.1-0.3-0.1c-0.1,0-0.2,0-0.3,0.1
		c-0.1,0-0.2,0.1-0.2,0.2c0,0.1-0.1,0.2-0.1,0.3v0c0,0.1,0,0.2,0.1,0.3c0,0.1,0.1,0.2,0.2,0.2C154.8,61,154.9,61.1,155.1,61.1z
		 M155.1,62.6c0.1,0,0.2,0,0.3-0.1c0.1,0,0.2-0.1,0.2-0.2c0-0.1,0.1-0.2,0.1-0.3v0c0-0.1,0-0.2-0.1-0.3c0-0.1-0.1-0.2-0.2-0.2
		c-0.1,0-0.2-0.1-0.3-0.1c-0.1,0-0.2,0-0.3,0.1c-0.1,0-0.2,0.1-0.2,0.2c0,0.1-0.1,0.2-0.1,0.3v0c0,0.1,0,0.2,0.1,0.3
		c0,0.1,0.1,0.2,0.2,0.2C154.8,62.5,154.9,62.6,155.1,62.6z M155.1,62.9c-0.2,0-0.4,0-0.5-0.1c-0.1-0.1-0.2-0.2-0.3-0.3
		c-0.1-0.1-0.1-0.3-0.1-0.5v0c0-0.2,0-0.3,0.1-0.5c0.1-0.1,0.2-0.2,0.3-0.3c-0.1-0.1-0.2-0.2-0.3-0.3c-0.1-0.1-0.1-0.3-0.1-0.4v0
		c0-0.2,0-0.3,0.1-0.5c0.1-0.1,0.2-0.2,0.3-0.3c0.1-0.1,0.3-0.1,0.5-0.1c0.2,0,0.3,0,0.5,0.1c0.1,0.1,0.2,0.2,0.3,0.3
		c0.1,0.1,0.1,0.3,0.1,0.5v0c0,0.2,0,0.3-0.1,0.4c-0.1,0.1-0.2,0.2-0.3,0.3c0.1,0.1,0.2,0.2,0.3,0.3c0.1,0.1,0.1,0.3,0.1,0.5v0
		c0,0.2,0,0.3-0.1,0.5c-0.1,0.1-0.2,0.2-0.3,0.3C155.4,62.8,155.3,62.9,155.1,62.9z M152.7,61.2c0.2,0,0.3-0.1,0.4-0.2
		c0.1-0.1,0.1-0.3,0.1-0.5v0c0-0.2,0-0.4-0.1-0.5c-0.1-0.1-0.2-0.2-0.4-0.2c-0.2,0-0.3,0.1-0.4,0.2c-0.1,0.1-0.1,0.3-0.1,0.5v0
		c0,0.2,0,0.4,0.1,0.5C152.4,61.2,152.5,61.2,152.7,61.2z M153.1,61.2L153.1,61.2c0,0.1-0.1,0.2-0.2,0.2c-0.1,0-0.2,0-0.3,0
		c-0.2,0-0.3,0-0.4-0.1c-0.1-0.1-0.2-0.2-0.3-0.3c-0.1-0.1-0.1-0.3-0.1-0.5v0c0-0.2,0-0.4,0.1-0.5c0.1-0.1,0.2-0.3,0.3-0.3
		c0.1-0.1,0.3-0.1,0.5-0.1c0.2,0,0.3,0,0.5,0.1c0.1,0.1,0.2,0.2,0.3,0.3c0.1,0.1,0.1,0.3,0.1,0.5v0c0,0.1,0,0.2,0,0.4
		c0,0.1-0.1,0.3-0.1,0.4c0,0,0,0,0,0.1c0,0,0,0,0,0.1l-0.7,1.4h-0.3L153.1,61.2z"/>
	
		<path style="clip-path:url(#SVGID_00000007393055700277833500000018057077414806740671_);fill-rule:evenodd;clip-rule:evenodd;" d="
		M245.8,66.3c0,0-0.1-0.1-0.2-0.1c-0.1,0-0.1,0-0.2,0c-0.2,0-0.3,0-0.4,0.2c-0.1,0.1-0.2,0.2-0.2,0.4l0-0.4c0.1-0.1,0.2-0.2,0.3-0.3
		c0.1-0.1,0.3-0.1,0.4-0.1c0.1,0,0.2,0,0.3,0c0.1,0,0.2,0.1,0.2,0.1L245.8,66.3z M244.5,65.9h0.3v2.3h-0.3V65.9z M242.8,68.2
		c-0.2,0-0.3,0-0.4-0.1c-0.1-0.1-0.2-0.2-0.3-0.3c-0.1-0.1-0.1-0.3-0.1-0.5v-0.5c0-0.2,0-0.4,0.1-0.5c0.1-0.1,0.1-0.2,0.3-0.3
		c0.1-0.1,0.2-0.1,0.4-0.1c0.2,0,0.3,0,0.4,0.1c0.1,0.1,0.2,0.2,0.3,0.3l0,0.4c0-0.1,0-0.2-0.1-0.3c0-0.1-0.1-0.2-0.2-0.2
		c-0.1-0.1-0.2-0.1-0.3-0.1c-0.2,0-0.3,0.1-0.4,0.2c-0.1,0.1-0.2,0.3-0.2,0.5v0.5c0,0.2,0.1,0.4,0.2,0.5c0.1,0.1,0.2,0.2,0.4,0.2
		c0.1,0,0.2,0,0.3-0.1c0.1-0.1,0.2-0.1,0.2-0.2c0-0.1,0.1-0.2,0.1-0.3l0,0.5c-0.1,0.1-0.1,0.2-0.3,0.3
		C243.1,68.2,243,68.2,242.8,68.2z M242.9,69.1c-0.2,0-0.3,0-0.4-0.1c-0.1-0.1-0.2-0.2-0.3-0.3l0.2-0.2c0.1,0.1,0.1,0.2,0.2,0.2
		c0.1,0,0.2,0.1,0.3,0.1c0.2,0,0.4-0.1,0.5-0.2c0.1-0.1,0.2-0.3,0.2-0.5v-2.2h0.3v2.2c0,0.2,0,0.4-0.1,0.5c-0.1,0.1-0.2,0.3-0.3,0.3
		C243.2,69.1,243.1,69.1,242.9,69.1z M240.5,65.9h1v0.3h-1V65.9z M241.3,68.2c-0.2,0-0.3-0.1-0.4-0.2c-0.1-0.1-0.1-0.3-0.1-0.4v-2.3
		h0.3v2.3c0,0.1,0,0.2,0.1,0.2c0,0.1,0.1,0.1,0.2,0.1h0.2v0.3H241.3z M239.7,66.8c0-0.2-0.1-0.4-0.2-0.5c-0.1-0.1-0.2-0.2-0.4-0.2
		c-0.2,0-0.3,0-0.4,0.1c-0.1,0.1-0.1,0.2-0.1,0.4l0-0.4c0.1-0.1,0.2-0.3,0.3-0.3c0.1-0.1,0.3-0.1,0.4-0.1c0.2,0,0.4,0.1,0.6,0.2
		c0.1,0.2,0.2,0.4,0.2,0.7v1.4h-0.3V66.8z M238.3,65.9h0.3v2.3h-0.3V65.9z M237.2,65.9h0.3v2.3h-0.3V65.9z M237.2,65h0.3v0.3h-0.3
		V65z M236.6,66.3c0,0-0.1-0.1-0.2-0.1c-0.1,0-0.1,0-0.2,0c-0.2,0-0.3,0-0.4,0.2c-0.1,0.1-0.2,0.2-0.2,0.4l0-0.4
		c0.1-0.1,0.2-0.2,0.3-0.3c0.1-0.1,0.3-0.1,0.4-0.1c0.1,0,0.2,0,0.3,0c0.1,0,0.2,0.1,0.2,0.1L236.6,66.3z M235.3,65.9h0.3v2.3h-0.3
		V65.9z M233.9,68.2c-0.2,0-0.3,0-0.4-0.1c-0.1-0.1-0.2-0.2-0.3-0.3l0-0.5c0,0.1,0,0.2,0.1,0.3c0,0.1,0.1,0.2,0.2,0.2
		c0.1,0.1,0.2,0.1,0.3,0.1c0.2,0,0.3-0.1,0.4-0.2c0.1-0.1,0.2-0.3,0.2-0.5v-0.5c0-0.2,0-0.4-0.2-0.5c-0.1-0.1-0.2-0.2-0.4-0.2
		c-0.1,0-0.2,0-0.3,0.1c-0.1,0.1-0.2,0.1-0.2,0.2c0,0.1-0.1,0.2-0.1,0.3l0-0.4c0.1-0.1,0.2-0.3,0.3-0.3c0.1-0.1,0.3-0.1,0.4-0.1
		c0.2,0,0.3,0,0.4,0.1c0.1,0.1,0.2,0.2,0.3,0.3c0.1,0.1,0.1,0.3,0.1,0.5v0.5c0,0.2,0,0.4-0.1,0.5c-0.1,0.1-0.1,0.2-0.3,0.3
		C234.2,68.2,234.1,68.2,233.9,68.2z M232.9,65.9h0.3v3.2h-0.3V65.9z M231.3,68.2c-0.3,0-0.5-0.1-0.6-0.2c-0.1-0.1-0.2-0.3-0.2-0.5
		c0-0.2,0.1-0.4,0.2-0.5c0.1-0.1,0.3-0.2,0.6-0.2h0.7l0,0.3h-0.8c-0.1,0-0.3,0-0.3,0.1c-0.1,0.1-0.1,0.2-0.1,0.3
		c0,0.1,0,0.2,0.1,0.3c0.1,0.1,0.2,0.1,0.4,0.1c0.2,0,0.3,0,0.4-0.1c0.1,0,0.2-0.1,0.2-0.2l0,0.3c0,0-0.1,0.1-0.2,0.1
		c-0.1,0-0.1,0.1-0.2,0.1C231.5,68.2,231.4,68.2,231.3,68.2z M232,66.8c0-0.2,0-0.3-0.1-0.4c-0.1-0.1-0.2-0.2-0.4-0.2
		c-0.1,0-0.2,0-0.3,0.1c-0.1,0-0.2,0.1-0.3,0.1l-0.2-0.2c0.1-0.1,0.2-0.2,0.3-0.2c0.1-0.1,0.3-0.1,0.5-0.1c0.2,0,0.3,0,0.5,0.1
		c0.1,0.1,0.2,0.2,0.3,0.3c0.1,0.1,0.1,0.3,0.1,0.5v1.5H232V66.8z M229.6,67.6c0,0.1,0,0.2,0.1,0.2c0,0.1,0.1,0.1,0.2,0.1h0.2v0.3
		h-0.3c-0.2,0-0.3-0.1-0.4-0.2c-0.1-0.1-0.1-0.3-0.1-0.4V65h0.3V67.6z M227.7,68.2c-0.3,0-0.5-0.1-0.6-0.2c-0.1-0.1-0.2-0.3-0.2-0.5
		c0-0.2,0.1-0.4,0.2-0.5c0.1-0.1,0.3-0.2,0.6-0.2h0.7l0,0.3h-0.8c-0.1,0-0.3,0-0.3,0.1c-0.1,0.1-0.1,0.2-0.1,0.3
		c0,0.1,0,0.2,0.1,0.3c0.1,0.1,0.2,0.1,0.4,0.1c0.2,0,0.3,0,0.4-0.1c0.1,0,0.2-0.1,0.2-0.2l0,0.3c0,0-0.1,0.1-0.2,0.1
		c-0.1,0-0.1,0.1-0.2,0.1C227.9,68.2,227.8,68.2,227.7,68.2z M228.4,66.8c0-0.2,0-0.3-0.1-0.4c-0.1-0.1-0.2-0.2-0.4-0.2
		c-0.1,0-0.2,0-0.3,0.1c-0.1,0-0.2,0.1-0.3,0.1l-0.2-0.2c0.1-0.1,0.2-0.2,0.3-0.2c0.1-0.1,0.3-0.1,0.5-0.1c0.2,0,0.3,0,0.5,0.1
		c0.1,0.1,0.2,0.2,0.3,0.3c0.1,0.1,0.1,0.3,0.1,0.5v1.5h-0.3V66.8z M224.6,65h0.3v3.2h-0.3V65z M225.6,68.2c-0.2,0-0.3,0-0.4-0.1
		c-0.1-0.1-0.2-0.2-0.3-0.3l0-0.5c0,0.1,0,0.2,0.1,0.3c0,0.1,0.1,0.2,0.2,0.2c0.1,0.1,0.2,0.1,0.3,0.1c0.2,0,0.3-0.1,0.4-0.2
		c0.1-0.1,0.2-0.3,0.2-0.5v-0.5c0-0.2-0.1-0.4-0.2-0.5c-0.1-0.1-0.2-0.2-0.4-0.2c-0.1,0-0.2,0-0.3,0.1c-0.1,0.1-0.2,0.1-0.2,0.2
		c0,0.1-0.1,0.2-0.1,0.3l0-0.4c0.1-0.1,0.2-0.3,0.3-0.3c0.1-0.1,0.3-0.1,0.4-0.1c0.2,0,0.3,0,0.4,0.1c0.1,0.1,0.2,0.2,0.3,0.3
		c0.1,0.1,0.1,0.3,0.1,0.5v0.5c0,0.2,0,0.4-0.1,0.5c-0.1,0.1-0.1,0.2-0.3,0.3C225.9,68.2,225.8,68.2,225.6,68.2z M222.5,67.3
		c0,0.2,0.1,0.4,0.2,0.5c0.1,0.1,0.2,0.2,0.4,0.2c0.2,0,0.3,0,0.4-0.2c0.1-0.1,0.2-0.2,0.2-0.4l0,0.5c-0.1,0.1-0.1,0.2-0.3,0.3
		c-0.1,0.1-0.3,0.1-0.5,0.1c-0.2,0-0.4-0.1-0.6-0.2c-0.1-0.2-0.2-0.4-0.2-0.7v-1.4h0.3V67.3z M223.7,65.9h0.3v2.3h-0.3V65.9z
		 M221.3,66.8c0-0.2-0.1-0.4-0.2-0.5c-0.1-0.1-0.2-0.2-0.4-0.2c-0.2,0-0.3,0-0.4,0.1c-0.1,0.1-0.1,0.2-0.1,0.4l0-0.4
		c0.1-0.1,0.2-0.3,0.3-0.3c0.1-0.1,0.3-0.1,0.4-0.1c0.2,0,0.4,0.1,0.6,0.2c0.1,0.2,0.2,0.4,0.2,0.7v1.4h-0.3V66.8z M219.8,65h0.3
		v3.2h-0.3V65z M218.2,65.9h1v0.3h-1V65.9z M218.9,68.2c-0.2,0-0.3-0.1-0.4-0.2c-0.1-0.1-0.1-0.3-0.1-0.4v-2.3h0.3v2.3
		c0,0.1,0,0.2,0.1,0.2c0,0.1,0.1,0.1,0.2,0.1h0.2v0.3H218.9z M216.2,67.3c0,0.2,0.1,0.4,0.2,0.5c0.1,0.1,0.2,0.2,0.4,0.2
		c0.2,0,0.3,0,0.4-0.2c0.1-0.1,0.2-0.2,0.2-0.4l0,0.5c-0.1,0.1-0.1,0.2-0.3,0.3c-0.1,0.1-0.3,0.1-0.5,0.1c-0.2,0-0.4-0.1-0.6-0.2
		c-0.1-0.2-0.2-0.4-0.2-0.7v-1.4h0.3V67.3z M217.4,65.9h0.3v2.3h-0.3V65.9z M213.6,66.8c0-0.2,0-0.4-0.1-0.5
		c-0.1-0.1-0.2-0.2-0.4-0.2c-0.2,0-0.3,0-0.4,0.1c-0.1,0.1-0.1,0.2-0.1,0.4l0-0.4c0.1-0.2,0.2-0.3,0.3-0.3c0.1-0.1,0.3-0.1,0.4-0.1
		c0.2,0,0.3,0,0.4,0.1c0.1,0.1,0.2,0.2,0.2,0.3c0.1,0.1,0.1,0.3,0.1,0.5v1.4h-0.3V66.8z M212.2,65.9h0.3v2.3h-0.3V65.9z M215,66.8
		c0-0.2,0-0.4-0.1-0.5c-0.1-0.1-0.2-0.2-0.4-0.2c-0.2,0-0.3,0.1-0.4,0.2c-0.1,0.1-0.1,0.3-0.1,0.5l-0.1-0.3c0.1-0.2,0.2-0.3,0.3-0.4
		c0.1-0.1,0.3-0.2,0.5-0.2c0.2,0,0.3,0,0.4,0.1c0.1,0.1,0.2,0.2,0.3,0.3c0.1,0.1,0.1,0.3,0.1,0.5v1.4H215V66.8z M281.9,62.5h0.3V63
		l-0.3,0.4V62.5z M280.4,62.9c-0.2,0-0.3,0-0.4-0.1c-0.1-0.1-0.2-0.2-0.3-0.3c-0.1-0.1-0.1-0.3-0.2-0.4v0h0.3v0
		c0,0.2,0.1,0.3,0.2,0.4c0.1,0.1,0.2,0.1,0.4,0.1c0.2,0,0.3-0.1,0.4-0.2c0.1-0.1,0.1-0.2,0.1-0.4v-0.5c0-0.2,0-0.3-0.1-0.4
		c-0.1-0.1-0.2-0.1-0.4-0.1c-0.1,0-0.2,0-0.3,0.1c-0.1,0.1-0.2,0.2-0.3,0.3h-0.3v-1.7h1.6v0.3h-1.3v1c0.1-0.1,0.2-0.1,0.3-0.2
		c0.1,0,0.2-0.1,0.3-0.1c0.2,0,0.3,0,0.4,0.1c0.1,0.1,0.2,0.2,0.3,0.3c0.1,0.1,0.1,0.3,0.1,0.5V62c0,0.2,0,0.3-0.1,0.5
		c-0.1,0.1-0.2,0.2-0.3,0.3C280.7,62.8,280.6,62.9,280.4,62.9z M278.8,62.8h-0.3v-2.9l-0.6,0.4v-0.3l0.4-0.3h0.4V62.8z M276.6,62.6
		c0.2,0,0.3-0.1,0.4-0.2c0.1-0.1,0.1-0.3,0.1-0.5v-1.4c0-0.2,0-0.3-0.1-0.5c-0.1-0.1-0.2-0.2-0.4-0.2c-0.2,0-0.3,0.1-0.4,0.2
		c-0.1,0.1-0.1,0.3-0.1,0.5V62c0,0.2,0,0.3,0.1,0.5C276.2,62.5,276.4,62.6,276.6,62.6z M276.6,62.9c-0.3,0-0.5-0.1-0.7-0.2
		c-0.1-0.2-0.2-0.4-0.2-0.7v-1.4c0-0.3,0.1-0.5,0.2-0.7c0.2-0.2,0.4-0.2,0.7-0.2c0.3,0,0.5,0.1,0.7,0.2c0.1,0.2,0.2,0.4,0.2,0.7V62
		c0,0.3-0.1,0.5-0.2,0.7C277.1,62.8,276.8,62.9,276.6,62.9z M273,62.6c0.2,0,0.3-0.1,0.4-0.2c0.1-0.1,0.1-0.3,0.1-0.5v-1.4
		c0-0.2,0-0.3-0.1-0.5c-0.1-0.1-0.2-0.2-0.4-0.2c-0.2,0-0.3,0.1-0.4,0.2c-0.1,0.1-0.1,0.3-0.1,0.5V62c0,0.2,0,0.3,0.1,0.5
		C272.6,62.5,272.8,62.6,273,62.6z M273,62.9c-0.3,0-0.5-0.1-0.7-0.2c-0.1-0.2-0.2-0.4-0.2-0.7v-1.4c0-0.3,0.1-0.5,0.2-0.7
		c0.2-0.2,0.4-0.2,0.7-0.2c0.3,0,0.5,0.1,0.7,0.2c0.1,0.2,0.2,0.4,0.2,0.7V62c0,0.3-0.1,0.5-0.2,0.7C273.5,62.8,273.3,62.9,273,62.9
		z M270.6,62.6c0.2,0,0.3-0.1,0.4-0.2c0.1-0.1,0.1-0.3,0.1-0.5v-1.4c0-0.2,0-0.3-0.1-0.5c-0.1-0.1-0.2-0.2-0.4-0.2
		c-0.2,0-0.3,0.1-0.4,0.2c-0.1,0.1-0.1,0.3-0.1,0.5V62c0,0.2,0,0.3,0.1,0.5C270.2,62.5,270.4,62.6,270.6,62.6z M270.6,62.9
		c-0.3,0-0.5-0.1-0.7-0.2c-0.1-0.2-0.2-0.4-0.2-0.7v-1.4c0-0.3,0.1-0.5,0.2-0.7c0.2-0.2,0.4-0.2,0.7-0.2c0.3,0,0.5,0.1,0.7,0.2
		c0.1,0.2,0.2,0.4,0.2,0.7V62c0,0.3-0.1,0.5-0.2,0.7C271.1,62.8,270.9,62.9,270.6,62.9z M268.2,62.6c0.2,0,0.3-0.1,0.4-0.2
		c0.1-0.1,0.1-0.3,0.1-0.5v0c0-0.2-0.1-0.4-0.2-0.5c-0.1-0.1-0.2-0.2-0.4-0.2c-0.2,0-0.3,0.1-0.4,0.2c-0.1,0.1-0.1,0.3-0.1,0.5v0
		c0,0.2,0,0.4,0.1,0.5C267.9,62.5,268.1,62.6,268.2,62.6z M268.2,62.9c-0.2,0-0.3,0-0.5-0.1c-0.1-0.1-0.2-0.2-0.3-0.3
		c-0.1-0.1-0.1-0.3-0.1-0.5v0c0-0.1,0-0.2,0-0.4c0-0.1,0.1-0.3,0.1-0.4c0,0,0,0,0-0.1c0,0,0,0,0-0.1l0.7-1.4h0.3l-0.8,1.6l0-0.1
		c0-0.1,0.1-0.1,0.2-0.2c0.1,0,0.2-0.1,0.3-0.1c0.2,0,0.3,0,0.4,0.1c0.1,0.1,0.2,0.2,0.3,0.3c0.1,0.1,0.1,0.3,0.1,0.5v0
		c0,0.2,0,0.4-0.1,0.5c-0.1,0.1-0.2,0.3-0.3,0.3C268.6,62.8,268.4,62.9,268.2,62.9z M265.6,61.5v0.3h-1.4v-0.3H265.6z M262,60.6h0.3
		v2.3H262V60.6z M262,59.6h0.3V60H262V59.6z M260.3,62.9c-0.3,0-0.5-0.1-0.6-0.2c-0.1-0.1-0.2-0.3-0.2-0.5c0-0.2,0.1-0.4,0.2-0.5
		c0.1-0.1,0.3-0.2,0.6-0.2h0.7l0,0.3h-0.8c-0.1,0-0.3,0-0.3,0.1c-0.1,0.1-0.1,0.2-0.1,0.3c0,0.1,0,0.2,0.1,0.3
		c0.1,0.1,0.2,0.1,0.4,0.1c0.2,0,0.3,0,0.4-0.1c0.1,0,0.2-0.1,0.2-0.2l0,0.3c0,0-0.1,0.1-0.2,0.1c-0.1,0-0.1,0.1-0.2,0.1
		C260.5,62.8,260.4,62.9,260.3,62.9z M261,61.4c0-0.2,0-0.3-0.1-0.4c-0.1-0.1-0.2-0.2-0.4-0.2c-0.1,0-0.2,0-0.3,0.1
		c-0.1,0-0.2,0.1-0.3,0.1l-0.2-0.2c0.1-0.1,0.2-0.2,0.3-0.2c0.1-0.1,0.3-0.1,0.5-0.1c0.2,0,0.3,0,0.5,0.1c0.1,0.1,0.2,0.2,0.3,0.3
		c0.1,0.1,0.1,0.3,0.1,0.5v1.5H261V61.4z M258.7,61.4c0-0.2-0.1-0.4-0.2-0.5c-0.1-0.1-0.2-0.2-0.4-0.2c-0.2,0-0.3,0-0.4,0.1
		c-0.1,0.1-0.1,0.2-0.1,0.4l0-0.4c0.1-0.1,0.2-0.3,0.3-0.3c0.1-0.1,0.3-0.1,0.4-0.1c0.2,0,0.4,0.1,0.6,0.2c0.1,0.2,0.2,0.4,0.2,0.7
		v1.4h-0.3V61.4z M257.2,60.6h0.3v2.3h-0.3V60.6z M256.2,61.4c0-0.2-0.1-0.4-0.2-0.5c-0.1-0.1-0.2-0.2-0.4-0.2c-0.2,0-0.3,0-0.4,0.1
		c-0.1,0.1-0.1,0.2-0.1,0.4l0-0.4c0.1-0.1,0.2-0.3,0.3-0.3c0.1-0.1,0.3-0.1,0.4-0.1c0.2,0,0.4,0.1,0.6,0.2c0.1,0.2,0.2,0.4,0.2,0.7
		v1.4h-0.3V61.4z M254.7,60.6h0.3v2.3h-0.3V60.6z M253.3,62.9c-0.2,0-0.4,0-0.5-0.1c-0.1-0.1-0.3-0.2-0.3-0.3
		c-0.1-0.2-0.1-0.3-0.1-0.5v-0.3c0-0.2,0-0.4,0.1-0.6c0.1-0.2,0.2-0.3,0.3-0.4c0.1-0.1,0.3-0.1,0.5-0.1c0.2,0,0.3,0,0.5,0.1
		c0.1,0.1,0.2,0.2,0.3,0.4c0.1,0.2,0.1,0.3,0.1,0.6v0.3h-1.6v-0.3h1.3v0c0-0.2-0.1-0.4-0.2-0.5c-0.1-0.1-0.2-0.2-0.4-0.2
		c-0.2,0-0.4,0.1-0.5,0.2c-0.1,0.1-0.2,0.3-0.2,0.6v0.3c0,0.2,0.1,0.4,0.2,0.5c0.1,0.1,0.3,0.2,0.5,0.2c0.1,0,0.2,0,0.3-0.1
		c0.1,0,0.2-0.1,0.3-0.2l0.2,0.2c-0.1,0.1-0.2,0.2-0.4,0.3C253.6,62.8,253.5,62.9,253.3,62.9z M251.4,61.4c0-0.2-0.1-0.4-0.2-0.5
		c-0.1-0.1-0.2-0.2-0.4-0.2c-0.2,0-0.3,0-0.4,0.1c-0.1,0.1-0.1,0.2-0.1,0.4l0-0.4c0.1-0.1,0.2-0.3,0.3-0.3c0.1-0.1,0.3-0.1,0.4-0.1
		c0.2,0,0.4,0.1,0.6,0.2c0.1,0.2,0.2,0.4,0.2,0.7v1.4h-0.3V61.4z M250,59.6h0.3v3.2H250V59.6z M248.3,62.9c-0.2,0-0.4,0-0.6-0.1
		c-0.2-0.1-0.3-0.2-0.4-0.4c-0.1-0.2-0.1-0.4-0.1-0.6v-0.9c0-0.2,0-0.4,0.1-0.6c0.1-0.2,0.2-0.3,0.4-0.4c0.2-0.1,0.4-0.1,0.6-0.1
		c0.2,0,0.3,0,0.5,0.1c0.1,0.1,0.3,0.2,0.4,0.3c0.1,0.1,0.2,0.3,0.2,0.5h-0.3c0-0.1-0.1-0.2-0.2-0.3c-0.1-0.1-0.2-0.2-0.3-0.2
		c-0.1-0.1-0.2-0.1-0.3-0.1c-0.2,0-0.3,0-0.4,0.1c-0.1,0.1-0.2,0.2-0.3,0.3c-0.1,0.1-0.1,0.3-0.1,0.5v0.9c0,0.2,0,0.3,0.1,0.5
		c0.1,0.1,0.2,0.2,0.3,0.3c0.1,0.1,0.3,0.1,0.4,0.1c0.1,0,0.2,0,0.3-0.1c0.1,0,0.2-0.1,0.3-0.2c0.1-0.1,0.1-0.2,0.2-0.3h0.3
		c0,0.2-0.1,0.3-0.2,0.5c-0.1,0.1-0.2,0.2-0.4,0.3C248.7,62.8,248.5,62.9,248.3,62.9z M245.1,62.5h0.3V63l-0.3,0.4V62.5z
		 M243.5,60.6h1v0.3h-1V60.6z M244.3,62.8c-0.2,0-0.3-0.1-0.4-0.2c-0.1-0.1-0.1-0.3-0.1-0.4v-2.3h0.3v2.3c0,0.1,0,0.2,0.1,0.2
		c0,0.1,0.1,0.1,0.2,0.1h0.2v0.3H244.3z M242.3,62.9c-0.2,0-0.4,0-0.5-0.1c-0.1-0.1-0.3-0.2-0.3-0.3c-0.1-0.2-0.1-0.3-0.1-0.5v-0.3
		c0-0.2,0-0.4,0.1-0.6c0.1-0.2,0.2-0.3,0.3-0.4c0.1-0.1,0.3-0.1,0.5-0.1c0.2,0,0.3,0,0.5,0.1c0.1,0.1,0.2,0.2,0.3,0.4
		c0.1,0.2,0.1,0.3,0.1,0.6v0.3h-1.6v-0.3h1.3v0c0-0.2-0.1-0.4-0.2-0.5c-0.1-0.1-0.2-0.2-0.4-0.2c-0.2,0-0.4,0.1-0.5,0.2
		c-0.1,0.1-0.2,0.3-0.2,0.6v0.3c0,0.2,0.1,0.4,0.2,0.5c0.1,0.1,0.3,0.2,0.5,0.2c0.1,0,0.2,0,0.3-0.1c0.1,0,0.2-0.1,0.3-0.2l0.2,0.2
		c-0.1,0.1-0.2,0.2-0.4,0.3C242.5,62.8,242.4,62.9,242.3,62.9z M240,62.9c-0.2,0-0.3,0-0.4-0.1c-0.1-0.1-0.2-0.2-0.3-0.3l0-0.5
		c0,0.1,0,0.2,0.1,0.3c0,0.1,0.1,0.2,0.2,0.2c0.1,0.1,0.2,0.1,0.3,0.1c0.2,0,0.3-0.1,0.4-0.2c0.1-0.1,0.2-0.3,0.2-0.5v-0.5
		c0-0.2,0-0.4-0.2-0.5c-0.1-0.1-0.2-0.2-0.4-0.2c-0.1,0-0.2,0-0.3,0.1c-0.1,0.1-0.2,0.1-0.2,0.2c0,0.1-0.1,0.2-0.1,0.3l0-0.4
		c0.1-0.1,0.2-0.3,0.3-0.3c0.1-0.1,0.3-0.1,0.4-0.1c0.2,0,0.3,0,0.4,0.1c0.1,0.1,0.2,0.2,0.3,0.3c0.1,0.1,0.1,0.3,0.1,0.5v0.5
		c0,0.2,0,0.4-0.1,0.5c-0.1,0.1-0.1,0.2-0.3,0.3C240.3,62.8,240.1,62.9,240,62.9z M239,60.6h0.3v3.2H239V60.6z M237.4,62.9
		c-0.3,0-0.5-0.1-0.6-0.2c-0.1-0.1-0.2-0.3-0.2-0.5c0-0.2,0.1-0.4,0.2-0.5c0.1-0.1,0.3-0.2,0.6-0.2h0.7l0,0.3h-0.8
		c-0.1,0-0.3,0-0.3,0.1c-0.1,0.1-0.1,0.2-0.1,0.3c0,0.1,0,0.2,0.1,0.3c0.1,0.1,0.2,0.1,0.4,0.1c0.2,0,0.3,0,0.4-0.1
		c0.1,0,0.2-0.1,0.2-0.2l0,0.3c0,0-0.1,0.1-0.2,0.1c-0.1,0-0.1,0.1-0.2,0.1C237.6,62.8,237.5,62.9,237.4,62.9z M238,61.4
		c0-0.2,0-0.3-0.1-0.4c-0.1-0.1-0.2-0.2-0.4-0.2c-0.1,0-0.2,0-0.3,0.1c-0.1,0-0.2,0.1-0.3,0.1l-0.2-0.2c0.1-0.1,0.2-0.2,0.3-0.2
		c0.1-0.1,0.3-0.1,0.5-0.1c0.2,0,0.3,0,0.5,0.1c0.1,0.1,0.2,0.2,0.3,0.3c0.1,0.1,0.1,0.3,0.1,0.5v1.5H238V61.4z M235,62.9
		c-0.2,0-0.3,0-0.4-0.1c-0.1-0.1-0.2-0.2-0.3-0.3c-0.1-0.1-0.1-0.3-0.1-0.5v-0.5c0-0.2,0-0.4,0.1-0.5c0.1-0.1,0.1-0.2,0.3-0.3
		c0.1-0.1,0.2-0.1,0.4-0.1c0.2,0,0.3,0,0.4,0.1c0.1,0.1,0.2,0.2,0.3,0.3l0,0.4c0-0.1,0-0.2-0.1-0.3c0-0.1-0.1-0.2-0.2-0.2
		c-0.1-0.1-0.2-0.1-0.3-0.1c-0.2,0-0.3,0.1-0.4,0.2c-0.1,0.1-0.2,0.3-0.2,0.5v0.5c0,0.2,0.1,0.4,0.2,0.5c0.1,0.1,0.2,0.2,0.4,0.2
		c0.1,0,0.2,0,0.3-0.1c0.1-0.1,0.2-0.1,0.2-0.2c0-0.1,0.1-0.2,0.1-0.3l0,0.5c-0.1,0.1-0.1,0.2-0.3,0.3
		C235.3,62.8,235.2,62.9,235,62.9z M235.7,59.6h0.3v3.2h-0.3V59.6z M233.3,60.6h0.3v2.3h-0.3V60.6z M233.3,59.6h0.3V60h-0.3V59.6z
		 M231.6,62.9c-0.3,0-0.5-0.1-0.6-0.2c-0.1-0.1-0.2-0.3-0.2-0.5c0-0.2,0.1-0.4,0.2-0.5c0.1-0.1,0.3-0.2,0.6-0.2h0.7l0,0.3h-0.8
		c-0.1,0-0.3,0-0.3,0.1c-0.1,0.1-0.1,0.2-0.1,0.3c0,0.1,0,0.2,0.1,0.3c0.1,0.1,0.2,0.1,0.4,0.1c0.2,0,0.3,0,0.4-0.1
		c0.1,0,0.2-0.1,0.2-0.2l0,0.3c0,0-0.1,0.1-0.2,0.1c-0.1,0-0.1,0.1-0.2,0.1C231.8,62.8,231.7,62.9,231.6,62.9z M232.2,61.4
		c0-0.2,0-0.3-0.1-0.4c-0.1-0.1-0.2-0.2-0.4-0.2c-0.1,0-0.2,0-0.3,0.1c-0.1,0-0.2,0.1-0.3,0.1l-0.2-0.2c0.1-0.1,0.2-0.2,0.3-0.2
		c0.1-0.1,0.3-0.1,0.5-0.1c0.2,0,0.3,0,0.5,0.1c0.1,0.1,0.2,0.2,0.3,0.3c0.1,0.1,0.1,0.3,0.1,0.5v1.5h-0.3V61.4z"/>
	
		<path style="clip-path:url(#SVGID_00000007393055700277833500000018057077414806740671_);fill-rule:evenodd;clip-rule:evenodd;" d="
		M280.6,72.2c0-0.2,0-0.4-0.1-0.5c-0.1-0.1-0.2-0.2-0.4-0.2c-0.2,0-0.3,0-0.4,0.1c-0.1,0.1-0.1,0.2-0.1,0.4l0-0.4
		c0.1-0.2,0.2-0.3,0.3-0.3c0.1-0.1,0.3-0.1,0.4-0.1c0.2,0,0.3,0,0.4,0.1c0.1,0.1,0.2,0.2,0.2,0.3c0.1,0.1,0.1,0.3,0.1,0.5v1.4h-0.3
		V72.2z M279.2,71.3h0.3v2.3h-0.3V71.3z M281.9,72.2c0-0.2,0-0.4-0.1-0.5c-0.1-0.1-0.2-0.2-0.4-0.2c-0.2,0-0.3,0.1-0.4,0.2
		c-0.1,0.1-0.1,0.3-0.1,0.5l-0.1-0.3c0.1-0.2,0.2-0.3,0.3-0.4c0.1-0.1,0.3-0.1,0.5-0.1c0.2,0,0.3,0,0.4,0.1c0.1,0.1,0.2,0.2,0.3,0.3
		c0.1,0.1,0.1,0.3,0.1,0.5v1.4h-0.3V72.2z M277.6,73.3c0.2,0,0.3-0.1,0.4-0.2c0.1-0.1,0.2-0.3,0.2-0.5v-0.4c0-0.2-0.1-0.4-0.2-0.5
		c-0.1-0.1-0.3-0.2-0.4-0.2c-0.2,0-0.3,0.1-0.4,0.2c-0.1,0.1-0.2,0.3-0.2,0.5v0.4c0,0.2,0.1,0.4,0.2,0.5
		C277.3,73.3,277.5,73.3,277.6,73.3z M277.7,73.6c-0.2,0-0.4,0-0.5-0.1c-0.1-0.1-0.2-0.2-0.3-0.3c-0.1-0.1-0.1-0.3-0.1-0.5v-0.4
		c0-0.2,0-0.4,0.1-0.5c0.1-0.1,0.2-0.3,0.3-0.3c0.1-0.1,0.3-0.1,0.5-0.1c0.2,0,0.4,0,0.5,0.1c0.1,0.1,0.2,0.2,0.3,0.3
		c0.1,0.1,0.1,0.3,0.1,0.5v0.4c0,0.2,0,0.4-0.1,0.5c-0.1,0.1-0.2,0.3-0.3,0.3C278,73.6,277.8,73.6,277.7,73.6z M275.5,73.6
		c-0.2,0-0.4,0-0.5-0.1c-0.1-0.1-0.2-0.2-0.3-0.3c-0.1-0.1-0.1-0.3-0.1-0.5v-0.4c0-0.2,0-0.4,0.1-0.5c0.1-0.1,0.2-0.3,0.3-0.3
		c0.1-0.1,0.3-0.1,0.5-0.1c0.1,0,0.2,0,0.3,0c0.1,0,0.2,0.1,0.3,0.1c0.1,0.1,0.1,0.1,0.2,0.2l-0.2,0.2c-0.1-0.1-0.2-0.2-0.3-0.2
		c-0.1,0-0.2-0.1-0.3-0.1c-0.2,0-0.4,0.1-0.5,0.2c-0.1,0.1-0.2,0.3-0.2,0.5v0.4c0,0.2,0.1,0.4,0.2,0.5c0.1,0.1,0.3,0.2,0.5,0.2
		c0.1,0,0.2,0,0.3-0.1c0.1,0,0.2-0.1,0.3-0.2l0.2,0.2c-0.1,0.1-0.1,0.1-0.2,0.2c-0.1,0.1-0.2,0.1-0.3,0.1
		C275.8,73.6,275.6,73.6,275.5,73.6z M273.6,73.2h0.3v0.4h-0.3V73.2z M272,73.6c-0.3,0-0.5-0.1-0.6-0.2c-0.1-0.1-0.2-0.3-0.2-0.5
		c0-0.2,0.1-0.4,0.2-0.5c0.1-0.1,0.3-0.2,0.6-0.2h0.7l0,0.3H272c-0.1,0-0.3,0-0.3,0.1c-0.1,0.1-0.1,0.2-0.1,0.3c0,0.1,0,0.2,0.1,0.3
		c0.1,0.1,0.2,0.1,0.4,0.1c0.2,0,0.3,0,0.4-0.1c0.1,0,0.2-0.1,0.2-0.2l0,0.3c0,0-0.1,0.1-0.2,0.1c-0.1,0-0.1,0.1-0.2,0.1
		C272.2,73.6,272.1,73.6,272,73.6z M272.7,72.1c0-0.2,0-0.3-0.1-0.4c-0.1-0.1-0.2-0.2-0.4-0.2c-0.1,0-0.2,0-0.3,0.1
		c-0.1,0-0.2,0.1-0.3,0.1l-0.2-0.2c0.1-0.1,0.2-0.2,0.3-0.2c0.1-0.1,0.3-0.1,0.5-0.1c0.2,0,0.3,0,0.5,0.1c0.1,0.1,0.2,0.2,0.3,0.3
		c0.1,0.1,0.1,0.3,0.1,0.5v1.5h-0.3V72.1z M270.4,73c0,0.1,0,0.2,0.1,0.2c0,0.1,0.1,0.1,0.2,0.1h0.2v0.3h-0.3
		c-0.2,0-0.3-0.1-0.4-0.2c-0.1-0.1-0.1-0.3-0.1-0.4v-2.6h0.3V73z M268.4,73.6c-0.3,0-0.5-0.1-0.6-0.2c-0.1-0.1-0.2-0.3-0.2-0.5
		c0-0.2,0.1-0.4,0.2-0.5c0.1-0.1,0.3-0.2,0.6-0.2h0.7l0,0.3h-0.8c-0.1,0-0.3,0-0.3,0.1c-0.1,0.1-0.1,0.2-0.1,0.3
		c0,0.1,0,0.2,0.1,0.3c0.1,0.1,0.2,0.1,0.4,0.1c0.2,0,0.3,0,0.4-0.1c0.1,0,0.2-0.1,0.2-0.2l0,0.3c0,0-0.1,0.1-0.2,0.1
		c-0.1,0-0.1,0.1-0.2,0.1C268.6,73.6,268.5,73.6,268.4,73.6z M269.1,72.1c0-0.2,0-0.3-0.1-0.4c-0.1-0.1-0.2-0.2-0.4-0.2
		c-0.1,0-0.2,0-0.3,0.1c-0.1,0-0.2,0.1-0.3,0.1l-0.2-0.2c0.1-0.1,0.2-0.2,0.3-0.2c0.1-0.1,0.3-0.1,0.5-0.1c0.2,0,0.3,0,0.5,0.1
		c0.1,0.1,0.2,0.2,0.3,0.3c0.1,0.1,0.1,0.3,0.1,0.5v1.5h-0.3V72.1z M265.4,70.4h0.3v3.2h-0.3V70.4z M266.4,73.6
		c-0.2,0-0.3,0-0.4-0.1c-0.1-0.1-0.2-0.2-0.3-0.3l0-0.5c0,0.1,0,0.2,0.1,0.3c0,0.1,0.1,0.2,0.2,0.2c0.1,0.1,0.2,0.1,0.3,0.1
		c0.2,0,0.3-0.1,0.4-0.2c0.1-0.1,0.2-0.3,0.2-0.5v-0.5c0-0.2,0-0.4-0.2-0.5c-0.1-0.1-0.2-0.2-0.4-0.2c-0.1,0-0.2,0-0.3,0.1
		c-0.1,0.1-0.2,0.1-0.2,0.2c0,0.1-0.1,0.2-0.1,0.3l0-0.4c0.1-0.1,0.2-0.3,0.3-0.3c0.1-0.1,0.3-0.1,0.4-0.1c0.2,0,0.3,0,0.4,0.1
		c0.1,0.1,0.2,0.2,0.3,0.3c0.1,0.1,0.1,0.3,0.1,0.5v0.5c0,0.2,0,0.4-0.1,0.5c-0.1,0.1-0.1,0.2-0.3,0.3
		C266.7,73.6,266.5,73.6,266.4,73.6z M263.2,72.7c0,0.2,0.1,0.4,0.2,0.5c0.1,0.1,0.2,0.2,0.4,0.2c0.2,0,0.3,0,0.4-0.2
		c0.1-0.1,0.2-0.2,0.2-0.4l0,0.5c-0.1,0.1-0.1,0.2-0.3,0.3c-0.1,0.1-0.3,0.1-0.5,0.1c-0.2,0-0.4-0.1-0.6-0.2
		c-0.1-0.2-0.2-0.4-0.2-0.7v-1.4h0.3V72.7z M264.4,71.3h0.3v2.3h-0.3V71.3z M262,72.2c0-0.2-0.1-0.4-0.2-0.5
		c-0.1-0.1-0.2-0.2-0.4-0.2c-0.2,0-0.3,0-0.4,0.1c-0.1,0.1-0.1,0.2-0.1,0.4l0-0.4c0.1-0.1,0.2-0.3,0.3-0.3c0.1-0.1,0.3-0.1,0.4-0.1
		c0.2,0,0.4,0.1,0.6,0.2c0.1,0.2,0.2,0.4,0.2,0.7v1.4H262V72.2z M260.5,70.4h0.3v3.2h-0.3V70.4z M258.9,71.3h1v0.3h-1V71.3z
		 M259.7,73.6c-0.2,0-0.3-0.1-0.4-0.2c-0.1-0.1-0.1-0.3-0.1-0.4v-2.3h0.3V73c0,0.1,0,0.2,0.1,0.2c0,0.1,0.1,0.1,0.2,0.1h0.2v0.3
		H259.7z M257,72.7c0,0.2,0.1,0.4,0.2,0.5c0.1,0.1,0.2,0.2,0.4,0.2c0.2,0,0.3,0,0.4-0.2c0.1-0.1,0.2-0.2,0.2-0.4l0,0.5
		c-0.1,0.1-0.1,0.2-0.3,0.3c-0.1,0.1-0.3,0.1-0.5,0.1c-0.2,0-0.4-0.1-0.6-0.2c-0.1-0.2-0.2-0.4-0.2-0.7v-1.4h0.3V72.7z M258.1,71.3
		h0.3v2.3h-0.3V71.3z M254.3,72.2c0-0.2,0-0.4-0.1-0.5c-0.1-0.1-0.2-0.2-0.4-0.2c-0.2,0-0.3,0-0.4,0.1c-0.1,0.1-0.1,0.2-0.1,0.4
		l0-0.4c0.1-0.2,0.2-0.3,0.3-0.3c0.1-0.1,0.3-0.1,0.4-0.1c0.2,0,0.3,0,0.4,0.1c0.1,0.1,0.2,0.2,0.2,0.3c0.1,0.1,0.1,0.3,0.1,0.5v1.4
		h-0.3V72.2z M252.9,71.3h0.3v2.3h-0.3V71.3z M255.7,72.2c0-0.2,0-0.4-0.1-0.5c-0.1-0.1-0.2-0.2-0.4-0.2c-0.2,0-0.3,0.1-0.4,0.2
		c-0.1,0.1-0.1,0.3-0.1,0.5l-0.1-0.3c0.1-0.2,0.2-0.3,0.3-0.4c0.1-0.1,0.3-0.1,0.5-0.1c0.2,0,0.3,0,0.4,0.1c0.1,0.1,0.2,0.2,0.3,0.3
		c0.1,0.1,0.1,0.3,0.1,0.5v1.4h-0.3V72.2z M251.9,73.2h0.3v0.4h-0.3V73.2z M248.4,71.3h0.3l0.5,1.8l0.6-1.8h0.2l0.6,1.8l0.5-1.8h0.3
		l-0.7,2.3h-0.3l-0.6-1.7l-0.6,1.7h-0.3L248.4,71.3z M245,71.3h0.3l0.5,1.8l0.6-1.8h0.2l0.6,1.8l0.5-1.8h0.3l-0.7,2.3h-0.3l-0.6-1.7
		l-0.6,1.7h-0.3L245,71.3z M241.6,71.3h0.3l0.5,1.8l0.6-1.8h0.2l0.6,1.8l0.5-1.8h0.3l-0.7,2.3h-0.3l-0.6-1.7l-0.6,1.7h-0.3
		L241.6,71.3z M280.6,66.8c0-0.2,0-0.4-0.1-0.5c-0.1-0.1-0.2-0.2-0.4-0.2c-0.2,0-0.3,0-0.4,0.1c-0.1,0.1-0.1,0.2-0.1,0.4l0-0.4
		c0.1-0.2,0.2-0.3,0.3-0.3c0.1-0.1,0.3-0.1,0.4-0.1c0.2,0,0.3,0,0.4,0.1c0.1,0.1,0.2,0.2,0.2,0.3c0.1,0.1,0.1,0.3,0.1,0.5v1.4h-0.3
		V66.8z M279.2,65.9h0.3v2.3h-0.3V65.9z M281.9,66.8c0-0.2,0-0.4-0.1-0.5c-0.1-0.1-0.2-0.2-0.4-0.2c-0.2,0-0.3,0.1-0.4,0.2
		c-0.1,0.1-0.1,0.3-0.1,0.5l-0.1-0.3c0.1-0.2,0.2-0.3,0.3-0.4c0.1-0.1,0.3-0.2,0.5-0.2c0.2,0,0.3,0,0.4,0.1c0.1,0.1,0.2,0.2,0.3,0.3
		c0.1,0.1,0.1,0.3,0.1,0.5v1.4h-0.3V66.8z M277.6,67.9c0.2,0,0.3-0.1,0.4-0.2c0.1-0.1,0.2-0.3,0.2-0.5v-0.4c0-0.2-0.1-0.4-0.2-0.5
		c-0.1-0.1-0.3-0.2-0.4-0.2c-0.2,0-0.3,0.1-0.4,0.2c-0.1,0.1-0.2,0.3-0.2,0.5v0.4c0,0.2,0.1,0.4,0.2,0.5
		C277.3,67.9,277.5,67.9,277.6,67.9z M277.7,68.2c-0.2,0-0.4,0-0.5-0.1c-0.1-0.1-0.2-0.2-0.3-0.3c-0.1-0.1-0.1-0.3-0.1-0.5v-0.4
		c0-0.2,0-0.4,0.1-0.5c0.1-0.1,0.2-0.3,0.3-0.3c0.1-0.1,0.3-0.1,0.5-0.1c0.2,0,0.4,0,0.5,0.1c0.1,0.1,0.2,0.2,0.3,0.3
		c0.1,0.1,0.1,0.3,0.1,0.5v0.4c0,0.2,0,0.4-0.1,0.5c-0.1,0.1-0.2,0.3-0.3,0.3C278,68.2,277.8,68.2,277.7,68.2z M275.5,68.2
		c-0.2,0-0.4,0-0.5-0.1c-0.1-0.1-0.2-0.2-0.3-0.3c-0.1-0.1-0.1-0.3-0.1-0.5v-0.4c0-0.2,0-0.4,0.1-0.5c0.1-0.1,0.2-0.3,0.3-0.3
		c0.1-0.1,0.3-0.1,0.5-0.1c0.1,0,0.2,0,0.3,0c0.1,0,0.2,0.1,0.3,0.1c0.1,0.1,0.1,0.1,0.2,0.2l-0.2,0.2c-0.1-0.1-0.2-0.2-0.3-0.2
		c-0.1,0-0.2-0.1-0.3-0.1c-0.2,0-0.4,0.1-0.5,0.2c-0.1,0.1-0.2,0.3-0.2,0.5v0.4c0,0.2,0.1,0.4,0.2,0.5c0.1,0.1,0.3,0.2,0.5,0.2
		c0.1,0,0.2,0,0.3-0.1c0.1,0,0.2-0.1,0.3-0.2l0.2,0.2c-0.1,0.1-0.1,0.1-0.2,0.2c-0.1,0.1-0.2,0.1-0.3,0.1
		C275.8,68.2,275.6,68.2,275.5,68.2z M273.6,67.8h0.3v0.4h-0.3V67.8z M272.7,67.6c0,0.1,0,0.2,0.1,0.2c0,0.1,0.1,0.1,0.2,0.1h0.2
		v0.3h-0.3c-0.2,0-0.3-0.1-0.4-0.2c-0.1-0.1-0.1-0.3-0.1-0.4V65h0.3V67.6z M271.3,65.9h0.3v2.3h-0.3V65.9z M271.3,65h0.3v0.3h-0.3
		V65z M269.7,68.2c-0.3,0-0.5-0.1-0.6-0.2c-0.1-0.1-0.2-0.3-0.2-0.5c0-0.2,0.1-0.4,0.2-0.5c0.1-0.1,0.3-0.2,0.6-0.2h0.7l0,0.3h-0.8
		c-0.1,0-0.3,0-0.3,0.1c-0.1,0.1-0.1,0.2-0.1,0.3c0,0.1,0,0.2,0.1,0.3c0.1,0.1,0.2,0.1,0.4,0.1c0.2,0,0.3,0,0.4-0.1
		c0.1,0,0.2-0.1,0.2-0.2l0,0.3c0,0-0.1,0.1-0.2,0.1c-0.1,0-0.1,0.1-0.2,0.1C269.9,68.2,269.8,68.2,269.7,68.2z M270.3,66.8
		c0-0.2,0-0.3-0.1-0.4c-0.1-0.1-0.2-0.2-0.4-0.2c-0.1,0-0.2,0-0.3,0.1c-0.1,0-0.2,0.1-0.3,0.1l-0.2-0.2c0.1-0.1,0.2-0.2,0.3-0.2
		c0.1-0.1,0.3-0.1,0.5-0.1c0.2,0,0.3,0,0.5,0.1c0.1,0.1,0.2,0.2,0.3,0.3c0.1,0.1,0.1,0.3,0.1,0.5v1.5h-0.3V66.8z M266.6,66.8
		c0-0.2,0-0.4-0.1-0.5c-0.1-0.1-0.2-0.2-0.4-0.2c-0.2,0-0.3,0-0.4,0.1c-0.1,0.1-0.1,0.2-0.1,0.4l0-0.4c0.1-0.2,0.2-0.3,0.3-0.3
		c0.1-0.1,0.3-0.1,0.4-0.1c0.2,0,0.3,0,0.4,0.1c0.1,0.1,0.2,0.2,0.2,0.3c0.1,0.1,0.1,0.3,0.1,0.5v1.4h-0.3V66.8z M265.2,65.9h0.3
		v2.3h-0.3V65.9z M268,66.8c0-0.2,0-0.4-0.1-0.5c-0.1-0.1-0.2-0.2-0.4-0.2c-0.2,0-0.3,0.1-0.4,0.2c-0.1,0.1-0.1,0.3-0.1,0.5
		l-0.1-0.3c0.1-0.2,0.2-0.3,0.3-0.4c0.1-0.1,0.3-0.2,0.5-0.2c0.2,0,0.3,0,0.4,0.1c0.1,0.1,0.2,0.2,0.3,0.3c0.1,0.1,0.1,0.3,0.1,0.5
		v1.4H268V66.8z M263.6,68.2c-0.2,0-0.3,0-0.4-0.1c-0.1-0.1-0.2-0.2-0.3-0.3c-0.1-0.1-0.1-0.3-0.1-0.5v-0.5c0-0.2,0-0.4,0.1-0.5
		c0.1-0.1,0.1-0.2,0.3-0.3c0.1-0.1,0.2-0.1,0.4-0.1c0.2,0,0.3,0,0.4,0.1c0.1,0.1,0.2,0.2,0.3,0.3l0,0.4c0-0.1,0-0.2-0.1-0.3
		c0-0.1-0.1-0.2-0.2-0.2c-0.1-0.1-0.2-0.1-0.3-0.1c-0.2,0-0.3,0.1-0.4,0.2c-0.1,0.1-0.2,0.3-0.2,0.5v0.5c0,0.2,0.1,0.4,0.2,0.5
		c0.1,0.1,0.2,0.2,0.4,0.2c0.1,0,0.2,0,0.3-0.1c0.1-0.1,0.2-0.1,0.2-0.2c0-0.1,0.1-0.2,0.1-0.3l0,0.5c-0.1,0.1-0.1,0.2-0.3,0.3
		C263.9,68.2,263.8,68.2,263.6,68.2z M263.6,69.1c-0.2,0-0.3,0-0.4-0.1c-0.1-0.1-0.2-0.2-0.3-0.3l0.2-0.2c0.1,0.1,0.1,0.2,0.2,0.2
		c0.1,0,0.2,0.1,0.3,0.1c0.2,0,0.4-0.1,0.5-0.2c0.1-0.1,0.2-0.3,0.2-0.5v-2.2h0.3v2.2c0,0.2,0,0.4-0.1,0.5c-0.1,0.1-0.2,0.3-0.3,0.3
		C264,69.1,263.8,69.1,263.6,69.1z M260.6,69c-0.4,0-0.7-0.1-0.9-0.2c-0.2-0.1-0.4-0.3-0.5-0.5c-0.1-0.2-0.2-0.5-0.2-0.9
		c0-0.1,0-0.2,0-0.3c0-0.1,0-0.2,0-0.3c0-0.4,0.1-0.7,0.2-1c0.1-0.3,0.3-0.5,0.5-0.6c0.2-0.1,0.5-0.2,0.9-0.2c0.4,0,0.7,0.1,0.9,0.2
		c0.2,0.1,0.4,0.3,0.5,0.6c0.1,0.3,0.2,0.6,0.2,1v0.7c0,0.3,0,0.4-0.1,0.6c-0.1,0.1-0.2,0.2-0.4,0.2c-0.2,0-0.3,0-0.4-0.1
		c-0.1-0.1-0.1-0.2-0.1-0.4l0.2-0.2c0,0.2,0,0.3,0.1,0.3c0,0.1,0.1,0.1,0.2,0.1c0.1,0,0.2,0,0.2-0.1c0-0.1,0.1-0.2,0.1-0.3v-0.7
		c0-0.3-0.1-0.6-0.2-0.8c-0.1-0.2-0.3-0.4-0.5-0.5c-0.2-0.1-0.4-0.2-0.7-0.2c-0.3,0-0.6,0.1-0.8,0.2c-0.2,0.1-0.4,0.3-0.5,0.5
		c-0.1,0.2-0.2,0.5-0.2,0.8c0,0.1,0,0.2,0,0.3c0,0.1,0,0.2,0,0.3c0,0.3,0.1,0.6,0.2,0.8c0.1,0.2,0.3,0.4,0.5,0.5
		c0.2,0.1,0.5,0.2,0.8,0.2h0.6V69H260.6z M260.6,68c0.2,0,0.3-0.1,0.4-0.2c0.1-0.1,0.1-0.3,0.1-0.5v-0.4c0-0.2,0-0.4-0.1-0.5
		c-0.1-0.1-0.2-0.2-0.4-0.2c-0.4,0-0.6,0.2-0.6,0.7v0.4c0,0.2,0,0.4,0.1,0.5C260.3,67.9,260.4,68,260.6,68z M260.5,68.2
		c-0.2,0-0.4-0.1-0.6-0.2c-0.1-0.2-0.2-0.4-0.2-0.7v-0.4c0-0.3,0.1-0.6,0.2-0.7c0.1-0.2,0.4-0.2,0.6-0.2c0.3,0,0.5,0.1,0.6,0.2
		c0.1,0.2,0.2,0.4,0.2,0.7v0.7l-0.2,0.2c0,0.2-0.1,0.3-0.2,0.3C260.9,68.2,260.7,68.2,260.5,68.2z M257.5,68.2c-0.1,0-0.2,0-0.3,0
		c-0.1,0-0.2-0.1-0.3-0.1c-0.1,0-0.2-0.1-0.3-0.2l0.2-0.2c0.1,0.1,0.2,0.1,0.4,0.2c0.1,0,0.3,0.1,0.4,0.1c0.2,0,0.4,0,0.5-0.1
		c0.1-0.1,0.2-0.2,0.2-0.3c0-0.1,0-0.2-0.1-0.2c-0.1,0-0.1-0.1-0.2-0.1c-0.1,0-0.2,0-0.4,0c0,0,0,0,0,0c0,0,0,0,0,0c0,0,0,0,0,0
		c0,0,0,0,0,0c-0.1,0-0.3,0-0.4-0.1c-0.1,0-0.2-0.1-0.2-0.2c-0.1-0.1-0.1-0.2-0.1-0.3c0-0.1,0-0.3,0.1-0.4c0.1-0.1,0.2-0.2,0.3-0.2
		c0.1-0.1,0.3-0.1,0.5-0.1c0.1,0,0.2,0,0.3,0c0.1,0,0.2,0,0.3,0.1c0.1,0,0.2,0.1,0.2,0.1l-0.2,0.2c-0.1-0.1-0.2-0.1-0.3-0.1
		c-0.1,0-0.2-0.1-0.3-0.1c-0.2,0-0.3,0-0.4,0.1c-0.1,0.1-0.2,0.2-0.2,0.3c0,0.1,0,0.2,0.1,0.2c0.1,0,0.1,0.1,0.2,0.1
		c0.1,0,0.2,0,0.3,0c0,0,0,0,0,0c0,0,0,0,0,0c0,0,0,0,0,0c0,0,0,0,0,0c0.2,0,0.3,0,0.4,0.1c0.1,0,0.2,0.1,0.3,0.2
		c0.1,0.1,0.1,0.2,0.1,0.4c0,0.1,0,0.3-0.1,0.4c-0.1,0.1-0.2,0.2-0.3,0.2C257.9,68.2,257.7,68.2,257.5,68.2z M255.4,68.2
		c-0.2,0-0.4,0-0.5-0.1c-0.1-0.1-0.2-0.2-0.3-0.3c-0.1-0.1-0.1-0.3-0.1-0.5v-0.4c0-0.2,0-0.4,0.1-0.5c0.1-0.1,0.2-0.3,0.3-0.3
		c0.1-0.1,0.3-0.1,0.5-0.1c0.1,0,0.2,0,0.3,0c0.1,0,0.2,0.1,0.3,0.1c0.1,0.1,0.1,0.1,0.2,0.2l-0.2,0.2c-0.1-0.1-0.2-0.2-0.3-0.2
		c-0.1,0-0.2-0.1-0.3-0.1c-0.2,0-0.4,0.1-0.5,0.2c-0.1,0.1-0.2,0.3-0.2,0.5v0.4c0,0.2,0.1,0.4,0.2,0.5c0.1,0.1,0.3,0.2,0.5,0.2
		c0.1,0,0.2,0,0.3-0.1c0.1,0,0.2-0.1,0.3-0.2l0.2,0.2c-0.1,0.1-0.1,0.1-0.2,0.2c-0.1,0.1-0.2,0.1-0.3,0.1
		C255.7,68.2,255.6,68.2,255.4,68.2z M253.5,65.9h0.3v2.3h-0.3V65.9z M253.5,65h0.3v0.3h-0.3V65z M252.5,66.8c0-0.2-0.1-0.4-0.2-0.5
		c-0.1-0.1-0.2-0.2-0.4-0.2c-0.2,0-0.3,0-0.4,0.1c-0.1,0.1-0.1,0.2-0.1,0.4l0-0.4c0.1-0.1,0.2-0.3,0.3-0.3c0.1-0.1,0.3-0.1,0.4-0.1
		c0.2,0,0.4,0.1,0.6,0.2c0.1,0.2,0.2,0.4,0.2,0.7v1.4h-0.3V66.8z M251,65h0.3v3.2H251V65z M249.6,68.2c-0.2,0-0.3,0-0.4-0.1
		c-0.1-0.1-0.2-0.2-0.3-0.3l0-0.5c0,0.1,0,0.2,0.1,0.3c0,0.1,0.1,0.2,0.2,0.2c0.1,0.1,0.2,0.1,0.3,0.1c0.2,0,0.3-0.1,0.4-0.2
		c0.1-0.1,0.2-0.3,0.2-0.5v-0.5c0-0.2-0.1-0.4-0.2-0.5c-0.1-0.1-0.2-0.2-0.4-0.2c-0.1,0-0.2,0-0.3,0.1c-0.1,0.1-0.2,0.1-0.2,0.2
		c0,0.1-0.1,0.2-0.1,0.3l0-0.4c0.1-0.1,0.2-0.3,0.3-0.3c0.1-0.1,0.3-0.1,0.4-0.1c0.2,0,0.3,0,0.4,0.1c0.1,0.1,0.2,0.2,0.3,0.3
		c0.1,0.1,0.1,0.3,0.1,0.5v0.5c0,0.2,0,0.4-0.1,0.5c-0.1,0.1-0.1,0.2-0.3,0.3C249.9,68.2,249.8,68.2,249.6,68.2z M248.7,65.9h0.3
		v3.2h-0.3V65.9z M247,68.2c-0.3,0-0.5-0.1-0.6-0.2c-0.1-0.1-0.2-0.3-0.2-0.5c0-0.2,0.1-0.4,0.2-0.5c0.1-0.1,0.3-0.2,0.6-0.2h0.7
		l0,0.3H247c-0.1,0-0.3,0-0.3,0.1c-0.1,0.1-0.1,0.2-0.1,0.3c0,0.1,0,0.2,0.1,0.3c0.1,0.1,0.2,0.1,0.4,0.1c0.2,0,0.3,0,0.4-0.1
		c0.1,0,0.2-0.1,0.2-0.2l0,0.3c0,0-0.1,0.1-0.2,0.1c-0.1,0-0.1,0.1-0.2,0.1C247.2,68.2,247.1,68.2,247,68.2z M247.7,66.8
		c0-0.2,0-0.3-0.1-0.4c-0.1-0.1-0.2-0.2-0.4-0.2c-0.1,0-0.2,0-0.3,0.1c-0.1,0-0.2,0.1-0.3,0.1l-0.2-0.2c0.1-0.1,0.2-0.2,0.3-0.2
		c0.1-0.1,0.3-0.1,0.5-0.1c0.2,0,0.3,0,0.5,0.1c0.1,0.1,0.2,0.2,0.3,0.3c0.1,0.1,0.1,0.3,0.1,0.5v1.5h-0.3V66.8z"/>
	<defs>
		
			<filter id="Adobe_OpacityMaskFilter_00000000930160581080851920000013308105669259236742_" filterUnits="userSpaceOnUse" x="53.1" y="-0.7" width="37.7" height="78.6">
			<feColorMatrix  type="matrix" values="1 0 0 0 0  0 1 0 0 0  0 0 1 0 0  0 0 0 1 0"/>
		</filter>
	</defs>
	
		<mask maskUnits="userSpaceOnUse" x="53.1" y="-0.7" width="37.7" height="78.6" id="SVGID_00000141418376931196864150000001014090628665750680_">
		<g style="filter:url(#Adobe_OpacityMaskFilter_00000000930160581080851920000013308105669259236742_);">
			
				<pattern  id="SVGID_00000064328939776020452270000005557609181764771007_" xlink:href="#Unnamed_Pattern" patternTransform="matrix(1 0 0 -1 53.0825 -156.1282)">
			</pattern>
			
				<rect x="53.1" y="-0.7" style="clip-path:url(#SVGID_00000007393055700277833500000018057077414806740671_);fill-rule:evenodd;clip-rule:evenodd;fill:url(#SVGID_00000064328939776020452270000005557609181764771007_);" width="37.7" height="78.6"/>
		</g>
	</mask>
	
		<rect x="53.1" y="-0.7" style="opacity:9.800000e-02;clip-path:url(#SVGID_00000007393055700277833500000018057077414806740671_);mask:url(#SVGID_00000141418376931196864150000001014090628665750680_);fill-rule:evenodd;clip-rule:evenodd;" width="37.7" height="78.6"/>
	
		<polygon style="clip-path:url(#SVGID_00000007393055700277833500000018057077414806740671_);fill-rule:evenodd;clip-rule:evenodd;fill:#E5E4E8;" points="
		87.2,49.5 88.2,50.7 72.7,76.8 71.1,76.8 	"/>
	<g style="clip-path:url(#SVGID_00000007393055700277833500000018057077414806740671_);">
		<defs>
			<polygon id="SVGID_00000125602807969625261560000013360608765599538344_" points="53.7,0 59.2,0 89.5,35.4 86.9,39.3 			"/>
		</defs>
		<clipPath id="SVGID_00000183229654110408075060000003623970496666150030_">
			<use xlink:href="#SVGID_00000125602807969625261560000013360608765599538344_"  style="overflow:visible;"/>
		</clipPath>
		
			<linearGradient id="SVGID_00000093886892375175277330000016144603950543563417_" gradientUnits="userSpaceOnUse" x1="51.5291" y1="3.371" x2="91.6291" y2="35.931">
			<stop  offset="0" style="stop-color:#009CC4"/>
			<stop  offset="0.39" style="stop-color:#007E7D"/>
			<stop  offset="0.73" style="stop-color:#005F61"/>
			<stop  offset="0.84" style="stop-color:#0F3F41"/>
			<stop  offset="1" style="stop-color:#102121"/>
		</linearGradient>
		
			<rect x="53.7" y="0" style="clip-path:url(#SVGID_00000183229654110408075060000003623970496666150030_);fill:url(#SVGID_00000093886892375175277330000016144603950543563417_);" width="35.8" height="39.3"/>
	</g>
	<g style="clip-path:url(#SVGID_00000007393055700277833500000018057077414806740671_);">
		<defs>
			<polygon id="SVGID_00000023268195176736969710000016584736140535042951_" points="86,31.4 89.6,35.4 64.6,76.7 58.8,76.7 			"/>
		</defs>
		<clipPath id="SVGID_00000109005466938784839790000015582963277407006358_">
			<use xlink:href="#SVGID_00000023268195176736969710000016584736140535042951_"  style="overflow:visible;"/>
		</clipPath>
		
			<linearGradient id="SVGID_00000009549434827603304320000015526103135659592120_" gradientUnits="userSpaceOnUse" x1="64.3165" y1="30.1055" x2="84.0065" y2="77.9455">
			<stop  offset="0" style="stop-color:#00AAA2"/>
			<stop  offset="1" style="stop-color:#0099AC"/>
		</linearGradient>
		
			<rect x="58.8" y="31.4" style="clip-path:url(#SVGID_00000109005466938784839790000015582963277407006358_);fill:url(#SVGID_00000009549434827603304320000015526103135659592120_);" width="30.8" height="45.4"/>
	</g>
	<g style="clip-path:url(#SVGID_00000007393055700277833500000018057077414806740671_);">
		<defs>
			<polygon id="SVGID_00000050645949234959287920000001241512986519529133_" points="81.9,49.8 84,52.3 69.2,76.8 65.8,76.8 			"/>
		</defs>
		<clipPath id="SVGID_00000037686075404579857740000013582754178049275286_">
			<use xlink:href="#SVGID_00000050645949234959287920000001241512986519529133_"  style="overflow:visible;"/>
		</clipPath>
		
			<linearGradient id="SVGID_00000113314440750996350210000014727772237534066364_" gradientUnits="userSpaceOnUse" x1="70.7403" y1="69.8527" x2="79.1103" y2="56.6527">
			<stop  offset="0" style="stop-color:#233646"/>
			<stop  offset="1" style="stop-color:#114178"/>
		</linearGradient>
		
			<rect x="65.8" y="49.8" style="clip-path:url(#SVGID_00000037686075404579857740000013582754178049275286_);fill:url(#SVGID_00000113314440750996350210000014727772237534066364_);" width="18.3" height="27"/>
	</g>
	
		<path style="clip-path:url(#SVGID_00000007393055700277833500000018057077414806740671_);fill-rule:evenodd;clip-rule:evenodd;fill:#FFFFFF;" d="
		M84.6,38.2l0.9,0.5c0,0,0.1,0,0.1,0c0,0,0,0,0.1,0l0,0l-0.3,0.5l0,0c0,0,0-0.1,0-0.1c0,0,0,0-0.1-0.1L84,38.3c0,0-0.1,0-0.1,0
		c0,0,0,0-0.1,0l0,0l0.4-0.6l0,0c0,0,0,0.1,0,0.1c0,0,0.1,0,0.1,0l1.3-0.3l-0.9-0.5c0,0-0.1,0-0.1,0c0,0,0,0-0.1,0l0,0l0.3-0.5l0,0
		c0,0,0,0.1,0,0.1c0,0,0,0,0.1,0.1l1.3,0.8c0,0,0.1,0,0.1,0c0,0,0,0,0.1,0l0,0l-0.3,0.6l0,0c0,0,0-0.1,0-0.1c0,0,0,0-0.1,0
		c0,0-0.1,0-0.1,0L84.6,38.2z M83.4,39.6c-0.1,0.2-0.1,0.3-0.1,0.5c0,0.2,0.1,0.3,0.3,0.4c0.1,0.1,0.3,0.1,0.4,0.1
		c0.2,0,0.3-0.1,0.4-0.3c0.1-0.2,0.1-0.3,0.1-0.5c0-0.1-0.1-0.3-0.3-0.4c-0.2-0.1-0.3-0.1-0.5-0.1C83.6,39.3,83.5,39.4,83.4,39.6z
		 M83.1,39.4c0.1-0.2,0.3-0.4,0.6-0.5c0.3-0.1,0.5-0.1,0.8,0.1c0.3,0.2,0.4,0.4,0.4,0.7c0,0.2,0,0.5-0.2,0.7
		c-0.1,0.2-0.3,0.4-0.6,0.5c-0.3,0.1-0.5,0.1-0.8-0.1c-0.3-0.2-0.4-0.4-0.4-0.7C82.9,39.9,83,39.7,83.1,39.4z M82.6,40.7l1.3,0.8
		c0,0,0.1,0,0.1,0c0,0,0,0,0.1,0l0,0L83.7,42l0,0c0,0,0-0.1,0-0.1c0,0,0,0-0.1-0.1l-1.3-0.8c0,0-0.1,0-0.1,0c0,0,0,0-0.1,0l0,0
		l0.3-0.5l0,0C82.5,40.6,82.5,40.7,82.6,40.7C82.5,40.7,82.5,40.7,82.6,40.7z M82,42l1.1,0.7c0,0,0.1,0,0.1,0c0,0,0,0,0.1,0l0,0
		L83,43.3l0,0c0,0,0-0.1,0-0.1c0,0,0,0-0.1-0.1l-1.1-0.7l-0.3,0.5c0,0,0,0.1,0,0.1c0,0,0,0,0,0.1l0,0L81,42.8l0,0c0,0,0.1,0,0.1,0
		c0,0,0,0,0.1-0.1l0.8-1.3c0,0,0-0.1,0-0.1c0,0,0,0,0-0.1l0,0l0.5,0.3l0,0c0,0-0.1,0-0.1,0c0,0,0,0-0.1,0.1L82,42z M81.9,43.8l0.5,0
		l0,0c0,0,0,0-0.1,0c0,0,0,0.1,0,0.1c0,0.2,0,0.3,0,0.4c0,0.1-0.1,0.2-0.2,0.4c-0.2,0.3-0.3,0.4-0.6,0.5c-0.1,0-0.3,0.1-0.4,0.1
		c-0.1,0-0.3-0.1-0.4-0.1c-0.2-0.1-0.3-0.3-0.4-0.4c-0.1-0.3-0.1-0.6,0.1-1c0.1-0.1,0.2-0.2,0.2-0.3c0.1-0.1,0.2-0.2,0.4-0.2
		c0.1,0,0.1-0.1,0.1-0.1c0,0,0,0,0-0.1l0,0l0.2,0.4l0,0c0,0,0,0,0,0c0,0,0,0,0,0c0,0-0.1,0-0.3,0.1c-0.1,0.1-0.2,0.2-0.3,0.3
		c-0.1,0.2-0.1,0.3-0.1,0.5c0,0.2,0.1,0.3,0.3,0.4c0.2,0.1,0.3,0.1,0.5,0c0.2-0.1,0.3-0.2,0.4-0.3c0.1-0.1,0.1-0.3,0.1-0.5
		C82,44,82,43.9,81.9,43.8C82,43.9,81.9,43.9,81.9,43.8L81.9,43.8z M80.1,46.6l0.4,0.2l0.6-1c0,0,0-0.1,0-0.1c0,0,0,0,0-0.1l0,0
		l0.5,0.3l0,0c0,0-0.1,0-0.1,0c0,0,0,0-0.1,0.1l-0.9,1.4l0,0c0,0,0-0.1,0-0.1c0,0,0,0-0.1-0.1l-1.3-0.8c0,0-0.1,0-0.1,0
		c0,0,0,0-0.1,0l0,0l0.8-1.4c0,0,0-0.1,0-0.1c0,0,0,0,0-0.1l0,0l0.5,0.3l0,0c0,0-0.1,0-0.1,0c0,0,0,0-0.1,0.1l-0.6,0.9l0.3,0.2
		l0.3-0.6c0,0,0-0.1,0-0.1c0,0,0,0,0-0.1l0,0l0.4,0.3l0,0c0,0-0.1,0-0.1,0c0,0,0,0-0.1,0.1L80.1,46.6z M79.1,48.4l0.5,0.3
		c0,0,0.1,0,0.1,0c0,0,0,0,0.1,0l0,0l-0.3,0.5l0,0c0,0,0-0.1,0-0.1c0,0,0,0-0.1-0.1l-1.3-0.8c0,0-0.1,0-0.1,0c0,0,0,0-0.1,0l0,0
		l0.8-1.4c0,0,0-0.1,0-0.1c0,0,0,0,0-0.1l0,0l0.5,0.3l0,0c0,0-0.1,0-0.1,0c0,0,0,0-0.1,0.1L78.5,48l0.3,0.2l0.3-0.6c0,0,0-0.1,0-0.1
		c0,0,0,0,0-0.1l0,0l0.4,0.3l0,0c0,0-0.1,0-0.1,0c0,0,0,0-0.1,0.1L79.1,48.4z M77.6,50.2l0.3-0.6c0.1-0.1,0.1-0.2,0.1-0.2
		c0-0.1,0-0.1-0.1-0.2c-0.1,0-0.1,0-0.2,0c0,0-0.1,0.1-0.2,0.2l-0.3,0.6L77.6,50.2z M77.9,50.3l0.5,0.3c0,0,0.1,0,0.1,0
		c0,0,0,0,0.1,0l0,0l-0.3,0.5l0,0c0,0,0-0.1,0-0.1c0,0,0,0-0.1-0.1l-1.3-0.8c0,0-0.1,0-0.1,0c0,0,0,0-0.1,0l0,0l0.6-1
		c0.1-0.1,0.1-0.2,0.2-0.3c0.1-0.1,0.1-0.1,0.2-0.1c0.1-0.1,0.3-0.1,0.5,0c0.1,0.1,0.2,0.2,0.2,0.3c0,0.1,0,0.3,0,0.4l0.6-0.1
		c0.1,0,0.2,0,0.2,0c0,0,0.1,0,0.1-0.1l0,0L79,50l0,0c0-0.1,0-0.1,0-0.1c0,0-0.1,0-0.1,0l-0.6,0L77.9,50.3z M76.8,52.1l0.4,0.2
		l0.6-1c0,0,0-0.1,0-0.1c0,0,0,0,0-0.1l0,0l0.5,0.3l0,0c0,0-0.1,0-0.1,0c0,0,0,0-0.1,0.1L77.2,53l0,0c0,0,0-0.1,0-0.1
		c0,0,0,0-0.1-0.1l-1.3-0.8c0,0-0.1,0-0.1,0c0,0,0,0-0.1,0l0,0l0.8-1.4c0,0,0-0.1,0-0.1c0,0,0,0,0-0.1l0,0l0.5,0.3l0,0
		c0,0-0.1,0-0.1,0c0,0,0,0-0.1,0.1l-0.6,0.9l0.3,0.2l0.3-0.6c0,0,0-0.1,0-0.1c0,0,0,0,0-0.1l0,0l0.4,0.3l0,0c0,0-0.1,0-0.1,0
		c0,0,0,0-0.1,0.1L76.8,52.1z M75.2,54l0.4-0.6c0.1-0.1,0.1-0.2,0.1-0.3c0,0,0-0.1,0-0.1c0,0-0.1-0.1-0.1-0.1c0,0-0.1,0-0.1,0
		c-0.1,0-0.1,0-0.1,0c-0.1,0-0.1,0.1-0.2,0.2l-0.4,0.6L75.2,54z M75.5,54.2l0.6,0.4c0,0,0.1,0,0.1,0c0,0,0,0,0.1,0l0,0l-0.4,0.6l0,0
		c0,0,0-0.1,0-0.1c0,0,0,0-0.1-0.1l-1.6-1c0,0-0.1,0-0.1,0c0,0,0,0-0.1,0l0,0l0.7-1.2c0.1-0.1,0.2-0.2,0.2-0.3
		c0.1-0.1,0.1-0.1,0.2-0.2c0.1,0,0.2,0,0.3,0c0.1,0,0.2,0,0.3,0.1c0.1,0.1,0.2,0.2,0.3,0.3c0,0.1,0.1,0.2,0,0.3
		c0,0.1-0.1,0.3-0.2,0.4L75.5,54.2z M74.4,56.2l-0.5,0.9l0.5,0.3c0,0,0.1,0,0.1,0c0,0,0,0,0.1,0l0,0l-0.3,0.5l0,0c0,0,0-0.1,0-0.1
		c0,0,0,0-0.1-0.1L72.9,57c0,0-0.1,0-0.1,0c0,0,0,0-0.1,0l0,0l0.3-0.5l0,0c0,0,0,0.1,0,0.1c0,0,0,0,0.1,0.1l0.5,0.3l0.5-0.9
		l-0.5-0.3c0,0-0.1,0-0.1,0c0,0,0,0-0.1,0l0,0l0.3-0.5l0,0c0,0,0,0.1,0,0.1c0,0,0,0,0.1,0.1l1.3,0.8c0,0,0.1,0,0.1,0c0,0,0,0,0.1,0
		l0,0L75,56.7l0,0c0,0,0-0.1,0-0.1c0,0,0,0-0.1-0.1L74.4,56.2z M72.5,58l1.1,0.7c0,0,0.1,0,0.1,0c0,0,0,0,0.1,0l0,0l-0.3,0.5l0,0
		c0,0,0-0.1,0-0.1c0,0,0,0-0.1-0.1l-1.1-0.7L72,58.8c0,0,0,0.1,0,0.1c0,0,0,0,0,0.1l0,0l-0.5-0.3l0,0c0,0,0.1,0,0.1,0
		c0,0,0,0,0.1-0.1l0.8-1.3c0,0,0-0.1,0-0.1c0,0,0,0,0-0.1l0,0l0.5,0.3l0,0c0,0-0.1,0-0.1,0c0,0,0,0-0.1,0.1L72.5,58z M71.7,59.1
		l1.3,0.8c0,0,0.1,0,0.1,0c0,0,0,0,0.1,0l0,0l-0.3,0.5l0,0c0,0,0-0.1,0-0.1c0,0,0,0-0.1-0.1l-1.3-0.8c0,0-0.1,0-0.1,0c0,0,0,0-0.1,0
		l0,0l0.3-0.5l0,0C71.6,59,71.6,59,71.7,59.1C71.6,59.1,71.6,59.1,71.7,59.1z M70.8,61.3l0.6,0.8c0,0,0.1,0.1,0.1,0.1
		c0.1,0,0.1,0,0.1,0l0,0l-0.3,0.6l0,0c0-0.1,0-0.1,0-0.1c0,0-0.1,0-0.1,0l-1.3-0.2c-0.1,0-0.2,0-0.2,0c0,0-0.1,0-0.1,0.1l0,0
		l0.4-0.6l0,0c0,0.1,0,0.1,0,0.1c0,0,0.1,0,0.1,0l0.9,0.1l-0.6-0.7c0,0-0.1-0.1-0.1-0.1c0,0-0.1,0-0.1,0l0,0l0.4-0.7l0,0
		c0,0.1,0,0.1,0,0.1c0,0,0.1,0,0.1,0l0.9,0.2l-0.6-0.7c0,0,0-0.1-0.1-0.1c0,0,0,0-0.1,0c0,0,0,0-0.1,0l0,0l0.4-0.6l0,0
		c0,0.1,0,0.1,0,0.1c0,0,0.1,0.1,0.1,0.2l0.8,1c0,0,0.1,0.1,0.1,0.1c0.1,0,0.1,0,0.2,0l0,0l-0.4,0.6l0,0c0-0.1,0-0.1,0-0.1
		c0,0-0.1,0-0.1,0L70.8,61.3z M69.6,64.2l0.5,0.3c0,0,0.1,0,0.1,0c0,0,0,0,0.1,0l0,0L70,65.1l0,0c0,0,0-0.1,0-0.1c0,0,0,0-0.1-0.1
		l-0.5-0.3l-0.9,0.1c-0.1,0-0.2,0-0.2,0c0,0-0.1,0-0.1,0.1l0,0l0.4-0.7l0,0c0,0.1,0,0.1,0,0.1c0,0,0.1,0,0.2,0l0.5,0L69,63.8
		c0-0.1-0.1-0.1-0.1-0.1c0,0-0.1,0-0.1,0l0,0l0.4-0.7l0,0c0,0,0,0.1,0,0.1c0,0,0,0.1,0.1,0.2L69.6,64.2z M68,65.5l1.1,0.7
		c0,0,0.1,0,0.1,0c0,0,0,0,0.1,0l0,0L69,66.8l0,0c0,0,0-0.1,0-0.1c0,0,0,0-0.1-0.1l-1.1-0.7l-0.3,0.5c0,0,0,0.1,0,0.1c0,0,0,0,0,0.1
		l0,0l-0.5-0.3l0,0c0,0,0.1,0,0.1,0c0,0,0,0,0.1-0.1l0.8-1.3c0,0,0-0.1,0-0.1c0,0,0,0,0-0.1l0,0l0.5,0.3l0,0c0,0-0.1,0-0.1,0
		c0,0,0,0-0.1,0.1L68,65.5z M67.2,66.7l1.3,0.8c0,0,0.1,0,0.1,0c0,0,0,0,0.1,0l0,0L68.3,68l0,0c0,0,0-0.1,0-0.1c0,0,0,0-0.1-0.1
		L66.9,67c0,0-0.1,0-0.1,0c0,0,0,0-0.1,0l0,0l0.3-0.5l0,0C67.1,66.6,67.1,66.6,67.2,66.7C67.1,66.6,67.1,66.7,67.2,66.7z M67.3,69
		l0.5-0.9c0,0,0-0.1,0-0.1c0,0,0,0,0-0.1l0,0l0.5,0.3l0,0c0,0-0.1,0-0.1,0c0,0,0,0-0.1,0.1l-0.8,1.3l0,0c0,0,0-0.1,0-0.1
		c0,0,0,0-0.1-0.1L66,68.7c0,0-0.1,0-0.1,0c0,0,0,0-0.1,0l0,0l0.3-0.5l0,0c0,0,0,0.1,0,0.1c0,0,0,0,0.1,0.1L67.3,69z M66.2,70.2
		l-0.7,0l0.4,0.5L66.2,70.2z M66.5,70.2l-0.4,0.7l0.1,0.2c0,0,0.1,0.1,0.1,0.1c0,0,0.1,0,0.1,0l0,0l-0.3,0.6l0,0c0,0,0-0.1,0-0.1
		c0,0,0-0.1-0.1-0.1l-0.8-1.3c0,0-0.1-0.1-0.1-0.1c0,0-0.1,0-0.1,0l0,0l0.4-0.6l0,0c0,0.1,0,0.1,0,0.1c0,0,0.1,0,0.1,0l1.5,0.1
		c0.1,0,0.1,0,0.2,0c0,0,0.1,0,0.1-0.1l0,0l-0.4,0.6l0,0c0-0.1,0-0.1,0-0.1c0,0-0.1,0-0.1,0L66.5,70.2z M64.6,71.1l0.8,0.5
		c0.2,0.1,0.3,0.2,0.3,0.4c0.1,0.2,0,0.5-0.2,0.8c-0.1,0.2-0.3,0.4-0.4,0.5c-0.1,0.1-0.2,0.1-0.3,0.1c-0.1,0-0.2-0.1-0.3-0.1
		l-0.8-0.5c0,0-0.1,0-0.1,0c0,0,0,0-0.1,0l0,0l0.3-0.5l0,0c0,0,0,0.1,0,0.1c0,0,0,0,0.1,0.1l0.7,0.4c0.1,0.1,0.2,0.1,0.2,0.1
		c0.1,0,0.1,0,0.2,0c0.1,0,0.2-0.1,0.3-0.3c0.1-0.1,0.1-0.3,0.1-0.4c0-0.1,0-0.1-0.1-0.1c0,0-0.1-0.1-0.2-0.1l-0.7-0.4
		c0,0-0.1,0-0.1,0c0,0,0,0-0.1,0l0,0l0.3-0.5l0,0C64.5,71,64.5,71,64.6,71.1C64.5,71,64.5,71.1,64.6,71.1z M64,74.1
		c-0.1-0.2-0.2-0.3-0.3-0.4c-0.2-0.1-0.4-0.1-0.6-0.1c-0.2,0.1-0.3,0.2-0.4,0.4c-0.1,0.2-0.1,0.4-0.1,0.6c0,0.2,0.2,0.4,0.4,0.5
		c0.2,0.1,0.4,0.1,0.6,0.1c0.2-0.1,0.3-0.2,0.4-0.4c0.1-0.1,0.1-0.2,0.1-0.3c0,0,0,0,0,0c-0.2,0-0.3,0.1-0.4,0.2l0,0
		c0-0.1,0-0.2,0.1-0.3c0-0.1,0.1-0.1,0.2-0.2C63.8,74.2,63.9,74.1,64,74.1z M64.4,74l0.2-0.1c0.1,0,0.1,0,0.1,0c0,0,0,0,0,0
		c0,0,0,0,0-0.1l0.1,0l0.1,0.6l-0.1,0c0,0,0-0.1-0.1-0.1c0,0-0.1,0-0.2,0l-0.3,0c0,0.2-0.1,0.4-0.2,0.6c-0.2,0.3-0.4,0.5-0.7,0.6
		c-0.2,0-0.3,0.1-0.5,0c-0.1,0-0.3-0.1-0.4-0.1c-0.2-0.1-0.3-0.3-0.4-0.5c-0.2-0.4-0.2-0.8,0.1-1.2c0.2-0.3,0.4-0.5,0.7-0.6
		c0.2,0,0.3-0.1,0.5,0c0.1,0,0.3,0.1,0.4,0.1C64.2,73.4,64.4,73.6,64.4,74z"/>
</g>
</svg>
